<?xml version="1.0" encoding="UTF-8"?>
<!-- Generator: Adobe Illustrator 16.0.3, SVG Export Plug-In . SVG Version: 6.00 Build 0)  -->
<!DOCTYPE svg PUBLIC "-//W3C//DTD SVG 1.1//EN" "http://www.w3.org/Graphics/SVG/1.1/DTD/svg11.dtd">
<svg version="1.1" id="Layer_1" xmlns="http://www.w3.org/2000/svg" xmlns:xlink="http://www.w3.org/1999/xlink" x="0px" y="0px" width="250px" height="175px" viewBox="-24 12.5 250 175" enable-background="new -24 12.5 250 175" xml:space="preserve">
<g>
	<g>
		<defs>
			<path id="SVGID_1_" d="M160.286,37.838c-10.537-2.435-28.33-4.423-59.286-4.724c-30.956,0.3-48.749,2.289-59.288,4.724     C59.07,22.391,78.516,13.461,101,13.46C123.485,13.461,142.93,22.391,160.286,37.838z M174.122,52.07     c-3.333-3.198-12.201-12.817-73.122-13.407c-60.922,0.59-69.789,10.208-73.123,13.407h-0.002v7.605H101h73.125V52.07H174.122     L174.122,52.07z M212.609,168.951h-223.22v3.13h223.22V168.951z M226,177.865H-24v9.635h250V177.865z M210.898,66.707H-10.611     V74.1h221.509V66.707z M10.05,80.678H4.508v81.508h5.542V80.678z M193.718,81.027h-5.544v81.141h5.544V81.027z M89.347,153.018     h-3.463c0,3.508-3.262,6.36-7.272,6.36s-7.272-2.854-7.272-6.36h-3.463c0,5.417,4.815,9.826,10.737,9.826     S89.347,158.435,89.347,153.018z M71.338,80.259h-3.464v72.759h3.464V80.259z M89.347,80.259h-3.463v72.759h3.463V80.259z      M39.813,120.155c-0.027-0.016-2.821-1.678-5.167-5.661c-2.347-3.987-2.235-9.228-2.234-9.331V80.48h-3.465l0.001,24.631     c-0.006,0.252-0.151,6.277,2.711,11.138c2.845,4.832,6.285,6.826,6.43,6.911L39.813,120.155z M46.236,116.249     c2.864-4.86,2.717-10.886,2.711-11.086V80.48h-3.464l0.001,24.733c0.001,0.054,0.115,5.294-2.232,9.281     c-2.346,3.983-5.14,5.646-5.161,5.656l1.715,3.01C39.95,123.075,43.393,121.081,46.236,116.249z M32.413,138.099     c-0.001-0.056-0.113-5.299,2.234-9.284c2.344-3.984,5.138-5.645,5.158-5.654l-1.713-3.01c-0.146,0.082-3.586,2.078-6.431,6.909     c-2.863,4.862-2.717,10.884-2.712,11.087v24.685h3.465V138.099z M48.947,138.197c0.008-0.254,0.153-6.275-2.709-11.138     c-2.845-4.831-6.288-6.827-6.433-6.909l-1.72,3.004c0.026,0.016,2.821,1.676,5.168,5.66c2.347,3.985,2.233,9.229,2.231,9.332     v24.685h3.464L48.947,138.197z M47.208,91.225H30.671v3.462h16.537V91.225z M47.219,104.522H30.671v3.466h16.548V104.522z      M47.219,134.274H30.776v3.466h16.443V134.274z M47.208,147.862H30.671v3.465h16.537V147.862z M120.755,162.186v-17.403     l-5.494-2.827l14.646-8.954l-14.413-7.084l14.343-7.813l-14.521-8.506l14.168-7.33l-8.729-6.974V80.752h-3.463v16.206     l5.862,4.688l-15.012,7.763l14.656,8.589l-14.835,8.077l14.764,7.26l-14.529,8.879l9.091,4.685l0.003,15.29h3.463V162.186z      M168.555,80.11v34.361l-10.669-14.376l-10.559,14.063V80.063l10.574,14.242L168.555,80.11z M155.73,97.193l-4.937-6.652v13.23     L155.73,97.193z M165.09,90.495l-5.036,6.71l5.036,6.787V90.495z M168.555,104.307v34.361l-10.669-14.373l-10.559,14.057V104.26     l10.574,14.24L168.555,104.307z M155.73,121.39l-4.937-6.65v13.231L155.73,121.39z M165.09,114.691l-5.036,6.711l5.036,6.785     V114.691z M168.555,128.501v34.365l-10.669-14.38l-10.559,14.062v-34.092l10.574,14.243L168.555,128.501z M155.73,145.586     l-4.937-6.653v13.231L155.73,145.586z M165.09,138.888l-5.036,6.71l5.036,6.787V138.888z M87.615,118.761h-18.01v3.465h18.01     V118.761z"/>
		</defs>
		<clipPath id="SVGID_2_">
			<use xlink:href="#SVGID_1_" overflow="visible"/>
		</clipPath>
		
			<linearGradient id="SVGID_3_" gradientUnits="userSpaceOnUse" x1="310.2139" y1="-93.3755" x2="310.2139" y2="-298.2563" gradientTransform="matrix(1 0 0 -1 -206 -95)">
			<stop offset="0" style="stop-color:#39B54A"/>
			<stop offset="1" style="stop-color:#00AEEF"/>
		</linearGradient>
		<rect x="-47.868" y="-1.625" clip-path="url(#SVGID_2_)" fill="url(#SVGID_3_)" width="304.165" height="204.88"/>
	</g>
</g>
</svg>