<svg data-name="Layer 1" xmlns="http://www.w3.org/2000/svg" viewBox="0 0 430.1 504.2"><title>logo-primary</title><path d="M393.41 392.19l3.74-2.88-65.54-84.22h11.27l28.41-28.42V181l-28.41-28.42h-38.53v-18.66l-28.43-28.42h-110a169 169 0 0 1 77.45-23.26q4.35-.22 8.76-.23c2.94 0 5.85.09 8.74.24 1 .05 2 .16 3 .21 1.88.13 3.78.28 5.65.46 1.2.12 2.38.28 3.57.43 1.63.2 3.26.41 4.87.66 1.3.19 2.59.42 3.87.63 1.46.26 2.91.55 4.36.84s2.76.56 4.13.87 2.54.62 3.79.95c1.49.37 3 .75 4.48 1.18.9.25 1.8.54 2.69.81a168.76 168.76 0 0 1 26 10.23l.53.26c2.16 1.07 4.29 2.2 6.4 3.36l.31.17a171.17 171.17 0 0 1 30.63 21.76 167.65 167.65 0 0 1 13.26 13.14l18.27-22.8a198.59 198.59 0 0 0-28-24.51l-.42-.3q-3.32-2.4-6.75-4.66c-.15-.11-.3-.2-.45-.3Q354.09 81 346.74 77l-.43-.24q-3.52-1.89-7.11-3.63c-.32-.17-.64-.31-1-.48-2.36-1.13-4.74-2.22-7.16-3.27l-.9-.39c-2.49-1.07-5-2.09-7.55-3.06h-.07q-3.79-1.42-7.68-2.72l-.86-.29c-2.48-.82-5-1.56-7.5-2.29l-1.31-.36q-3.75-1-7.56-1.94l-1.16-.26c-2.66-.6-5.32-1.17-8-1.67h-.13c-2.67-.49-5.36-.91-8.06-1.3-.37 0-.76-.1-1.14-.17q-3.91-.53-7.89-.9c-.49-.05-1-.1-1.49-.14-2.64-.24-5.28-.42-8-.55l-1.25-.05c-2.8-.11-5.63-.19-8.46-.19-3.44 0-6.85.09-10.24.25-105.09 5.3-188.72 92.26-188.72 198.74 0 109.91 89.11 199 199 199 3 0 6.06-.09 9.08-.22h.93c2.87-.14 5.7-.36 8.53-.62l1.3-.11c2.76-.28 5.52-.62 8.24-1l1.36-.2q4.12-.61 8.17-1.4l1.17-.23c2.77-.55 5.52-1.14 8.24-1.8l.7-.18q8.6-2.11 16.87-5l.71-.23q4-1.38 7.85-2.93c.31-.14.64-.26 1-.38 2.54-1 5.07-2.11 7.57-3.24.32-.15.63-.28 1-.43q3.78-1.72 7.48-3.6l.7-.37q3.83-2 7.56-4.08l.15-.09q7.79-4.44 15.12-9.57l.23-.15c2.37-1.66 4.7-3.39 7-5.15l.41-.3q3.41-2.63 6.71-5.41l.34-.29c2.24-1.9 4.45-3.83 6.58-5.82q3.23-2.99 6.34-6.1zM323.46 181l12.23 12.2v71.23l-12.23 12.24h-71.88v-18.62h24.34l28.42-28.42V181zm-71.88 48.66V181h17.17v36.4l-12.25 12.23zm-66.95-95.71h71.86l12.25 12.24v6.39h-76.75l7.25 27.7h16.75v49.39h-31.35zm50.08 287.35a170.06 170.06 0 0 1-103.79-288.5l.11.41h18v192.85h-15.59l-7.25 27.69h83.27l-7.25-27.69h-17.57v-68h31.35v115H201.6l-7.24 27.7h82.05l-7.25-27.7h-17.58v-68h40l63.41 82.34a169.66 169.66 0 0 1-38.21 22l-1 .44c-1.84.74-3.72 1.43-5.59 2.12l-2.43.88c-1.65.57-3.32 1.1-5 1.63-1.07.34-2.14.67-3.22 1-1.54.45-3.09.86-4.64 1.27-1.26.33-2.53.64-3.8.94-1.44.35-2.9.66-4.36 1s-2.86.56-4.29.82-2.72.5-4.08.71c-1.62.24-3.23.45-4.85.65-1.25.16-2.48.34-3.74.46-1.88.19-3.79.33-5.68.45-1 .08-2 .17-3.06.23-3 .16-5.91.24-8.89.24a171.46 171.46 0 0 1-17.44-.94z" fill="#52101a"/><path d="M264.63 503.89l2.48-.15 3.74-.24 2.63-.23 3.51-.27 2.72-.3 3.41-.38 2.75-.36 3.33-.48c.92-.13 1.85-.28 2.76-.43 1.09-.17 2.19-.35 3.26-.54l2.77-.51c1.08-.2 2.14-.39 3.2-.61l2.79-.56c1.05-.22 2.09-.45 3.14-.69l2.81-.62 3-.76c.94-.23 1.89-.45 2.81-.7l3-.81 2.82-.77 2.9-.87c1-.28 1.91-.56 2.86-.86s1.82-.59 2.73-.89 2-.63 3-1l2-.69c2.46-.85 4.88-1.76 7.3-2.67l1.63-.63c1.17-.47 2.34-.94 3.49-1.42l2-.8c1.14-.48 2.28-1 3.41-1.48l2-.86c1.14-.5 2.26-1 3.38-1.55l1.94-.9c1.13-.54 2.26-1.09 3.38-1.66.62-.3 1.23-.59 1.83-.9q1.72-.87 3.42-1.77c.57-.3 1.15-.59 1.72-.9q1.75-.92 3.47-1.89l1.58-.88c1.17-.66 2.36-1.34 3.53-2l1.4-.82c1.22-.72 2.44-1.45 3.66-2.2l1.13-.71q1.93-1.2 3.82-2.42l.81-.53c1.36-.9 2.74-1.81 4.09-2.74.09 0 .16-.11.24-.16a254.68 254.68 0 0 0 35.86-29.71l-15.2-19c-3.49 3.56-7.12 7-10.84 10.36q-2.76 2.46-5.59 4.85c-.76.65-1.56 1.28-2.34 1.92q-2.63 2.15-5.34 4.24c-.9.69-1.81 1.38-2.73 2.06-1.74 1.3-3.51 2.57-5.28 3.81l-2.74 1.9a210.89 210.89 0 0 1-5.86 3.84l-2.31 1.47q-3.31 2-6.68 4c-.81.47-1.62.93-2.43 1.38q-3.41 1.9-6.91 3.68c-.79.42-1.58.82-2.4 1.22-2.38 1.18-4.8 2.34-7.22 3.44-.74.35-1.48.67-2.23 1-2.54 1.11-5.09 2.2-7.68 3.22l-1.85.72c-2.68 1-5.38 2-8.11 3l-1.33.45q-4.08 1.37-8.23 2.6l-1.3.39c-2.91.84-5.85 1.62-8.81 2.35l-1.63.41c-2.92.69-5.87 1.33-8.83 1.91-.59.1-1.16.23-1.75.32-3 .57-6 1.07-9 1.52l-1.68.24q-4.6.64-9.26 1.11l-1.46.12c-3.21.3-6.43.54-9.68.7h-1c-3.42.16-6.87.25-10.34.25-5.91 0-11.74-.23-17.55-.67-117.71-9-210.43-107.3-210.43-227.31 0-125.9 102.07-228 228-228 3.2 0 6.38.09 9.55.22l1.36.06c3 .14 6 .34 9 .6.57.05 1.15.1 1.72.17 3 .27 5.87.59 8.79 1l1.49.22c3 .42 6 .88 9 1.43.14 0 .28.06.43.09 2.86.52 5.7 1.11 8.54 1.75.51.11 1 .22 1.54.35 2.76.63 5.49 1.32 8.2 2.05l1.95.54c2.66.75 5.3 1.53 7.92 2.37.62.19 1.23.4 1.83.6 2.61.86 5.22 1.76 7.79 2.71l1.27.48c2.4.9 4.78 1.87 7.13 2.84.62.25 1.23.5 1.84.77q3.65 1.55 7.22 3.23l2.19 1q3.49 1.68 6.92 3.47l2.11 1.13c2.19 1.17 4.36 2.38 6.51 3.64l1.9 1.11q2.95 1.76 5.85 3.61c.65.41 1.31.82 2 1.23q3.18 2.08 6.28 4.24c.72.52 1.45 1 2.18 1.54 2 1.45 4 2.94 6 4.45.68.52 1.36 1.06 2 1.59 1.92 1.5 3.83 3 5.69 4.6a226.34 226.34 0 0 1 16.63 15.36l15.2-19a252.37 252.37 0 0 0-70.95-49.78 1.28 1.28 0 0 0-.23-.1A245.38 245.38 0 0 0 329.39 12l-.82-.27c-3.16-1-6.37-1.95-9.58-2.84-.4-.1-.79-.21-1.18-.31-3.23-.87-6.47-1.68-9.75-2.42l-.83-.18c-3.42-.69-6.82-1.38-10.24-1.98h-.1c-3.34-.6-6.71-1.12-10.09-1.58l-1.41-.19c-3.23-.43-6.49-.79-9.75-1.09l-1.76-.17c-3.27-.27-6.56-.5-9.87-.65l-1.44-.05c-3.47-.14-7-.23-10.48-.23a255.44 255.44 0 0 0-38.39 2.89C92.7 21.4-.01 125.93-.01 252.09c0 139.23 112.87 252.1 252.1 252.1 2.1 0 4.2 0 6.29-.07l2.07-.08c1.41-.04 2.8-.04 4.18-.15z" fill="#52101a"/></svg>
