<?xml version="1.0" encoding="utf-8"?>
<!-- Generator: Adobe Illustrator 18.0.0, SVG Export Plug-In . SVG Version: 6.00 Build 0)  -->
<!DOCTYPE svg PUBLIC "-//W3C//DTD SVG 1.1//EN" "http://www.w3.org/Graphics/SVG/1.1/DTD/svg11.dtd">
<svg version="1.1" id="Layer_1" xmlns="http://www.w3.org/2000/svg" xmlns:xlink="http://www.w3.org/1999/xlink" x="0px" y="0px"
	 width="612px" height="160px" viewBox="0 650 612 160" enable-background="new 0 0 612 792" xml:space="preserve">
<path fill="#5C5D60" d="M545.6,706.7c0.5-0.3,1.4-0.6,2.9-0.6h5.6c3.8,0,6.3,0.2,7.7,0.6c1.4,0.3,2.3,1,2.8,2.2
	c0.3,0.7,0.5,1.5,0.5,2.2v0.9c0,0.8,0.2,1.1,0.7,1c0.5,0,0.7-0.2,0.8-0.6s0.2-1.3,0.3-2.6l0.1-2.2c0.1-1.6,0.2-2.5,0.3-2.9
	c0.1-0.3,0.1-0.6,0.1-0.8c0-0.7-0.3-1-1.1-1c-0.3,0-0.8,0-1.5,0.1c-0.3,0-1.1,0.1-2.6,0.1l-5.2,0.2c-2.3,0.1-4.8,0.1-7.8,0.1
	c-4.8,0-8.9-0.2-12.4-0.6c-1-0.1-1.8-0.2-2.4-0.2c-1,0-1.6,0.3-1.6,1c0,0.5,0.3,0.7,1,0.7c2.2,0,3.7,0.6,4.5,1.8
	c0.8,1.1,1.1,3.6,1.1,7v30.6v2.4c0,2.9-0.9,4.6-2.6,5l-1.4,0.3c-0.6,0.1-0.9,0.5-0.9,0.8c0,0.6,0.3,0.8,1.1,0.8
	c0.3,0,0.9-0.1,1.8-0.2c1.7-0.3,4.7-0.5,8.9-0.5c3,0,6.8,0.2,11.5,0.7c1.1,0.1,2.1,0.1,2.9,0.1c3.2,0,6-1.3,8-3.9
	c1.7-2.2,2.6-4,2.6-5.6c0-0.7-0.2-0.9-0.7-0.9c-0.2,0-0.6,0.2-0.8,0.7c-2.8,4.2-8.8,6.4-18.2,6.4c-3,0-4.8-0.2-5.6-0.8
	s-1.1-1.8-1.1-3.8v-13.3V731c0-0.7,0.2-1.3,0.6-1.5s1.1-0.3,2.4-0.3h8c2.1,0,3.6,0.3,4.4,0.9c0.9,0.6,1.5,1.7,1.7,3.3l0.2,1
	c0.1,0.6,0.5,0.8,0.9,0.8s0.7-0.3,0.7-0.9c0-0.2,0-0.6-0.1-1c-0.1-1.5-0.2-2.9-0.2-4.4c0-1.9,0.1-4,0.3-6.4c0-0.3,0-0.6,0-0.8
	c0-0.6-0.2-0.9-0.7-0.9s-0.8,0.2-0.9,0.9c-0.3,1.6-0.7,2.6-1,3c-0.3,0.5-1.3,0.8-2.5,1c-1.5,0.3-3.4,0.5-6,0.5h-5.6
	c-1,0-1.6-0.1-1.8-0.3c-0.2-0.2-0.3-0.9-0.3-2.1v-14.6C545,707.8,545.3,707,545.6,706.7 M504.2,706.7c0.5-0.3,1.4-0.6,2.9-0.6h5.6
	c3.8,0,6.3,0.2,7.7,0.6c1.4,0.3,2.3,1,2.8,2.2c0.3,0.7,0.5,1.5,0.5,2.2v0.9c0,0.8,0.2,1.1,0.7,1c0.5,0,0.7-0.2,0.8-0.6
	s0.2-1.3,0.3-2.6l0.1-2.2c0.1-1.6,0.2-2.5,0.3-2.9s0.1-0.6,0.1-0.8c0-0.7-0.3-1-1.1-1c-0.3,0-0.8,0-1.5,0.1c-0.3,0-1.1,0.1-2.6,0.1
	l-5.2,0.2c-2.3,0.1-4.8,0.1-7.8,0.1c-4.8,0-8.9-0.2-12.4-0.6c-1-0.1-1.8-0.2-2.4-0.2c-1,0-1.6,0.3-1.6,1c0,0.5,0.3,0.7,1,0.7
	c2.2,0,3.7,0.6,4.5,1.8c0.8,1.1,1.1,3.6,1.1,7v30.6v2.4c0,2.9-0.9,4.6-2.6,5l-1.4,0.3c-0.6,0.1-0.9,0.5-0.9,0.8
	c0,0.6,0.3,0.8,1.1,0.8c0.3,0,0.9-0.1,1.8-0.2c1.7-0.3,4.7-0.5,8.9-0.5c3,0,6.9,0.2,11.5,0.7c1.1,0.1,2.1,0.1,2.9,0.1
	c3.2,0,6-1.3,8-3.9c1.7-2.2,2.6-4,2.6-5.6c0-0.7-0.2-0.9-0.7-0.9c-0.2,0-0.6,0.2-0.8,0.7c-2.8,4.2-8.8,6.4-18.2,6.4
	c-3,0-4.8-0.2-5.6-0.8c-0.7-0.5-1.1-1.8-1.1-3.8v-13.3V731c0-0.7,0.2-1.3,0.6-1.5s1.1-0.3,2.4-0.3h8c2.1,0,3.6,0.3,4.4,0.9
	c0.9,0.6,1.5,1.7,1.7,3.3l0.2,1c0.1,0.6,0.5,0.8,0.9,0.8s0.7-0.3,0.7-0.9c0-0.2,0-0.6-0.1-1c-0.1-1.5-0.2-2.9-0.2-4.4
	c0-1.9,0.1-4,0.3-6.4c0-0.3,0-0.6,0-0.8c0-0.6-0.2-0.9-0.7-0.9s-0.8,0.2-0.9,0.9c-0.3,1.6-0.7,2.6-1,3c-0.3,0.5-1.3,0.8-2.5,1
	c-1.5,0.3-3.4,0.5-6,0.5h-5.6c-1,0-1.6-0.1-1.8-0.3c-0.2-0.2-0.3-0.9-0.3-2.1v-14.6C503.5,707.8,503.8,707,504.2,706.7 M460.3,706.2
	c-2.9,2.4-4.4,5.6-4.4,9.5c0,3.4,1.1,6.3,3.3,8.5c2.2,2.2,6,4.2,11.4,6c5.2,1.7,8.3,3.1,9.4,4c2.1,1.8,3.2,4.1,3.2,6.8
	c0,2.8-1.1,5.2-3.4,7.1s-5.2,3-8.4,3c-3.3,0-6.3-1-9.1-3.1c-2.8-2.1-4.6-4.6-5.5-7.6c-0.3-1.1-0.7-1.7-1.1-1.7s-0.7,0.3-0.7,1
	c0,0.9,0.3,2.4,0.9,4.6c0.6,1.9,0.8,3.1,0.9,3.3c0.3,1.4,0.5,2.2,0.7,2.5c0.1,0.3,0.5,0.7,0.9,0.9c1,0.7,2.6,1.3,4.9,1.8
	c2.2,0.6,4.2,0.8,6.1,0.8c5.2,0,9.3-1.4,12.6-4.4c3.3-2.9,4.9-6.5,4.9-11c0-6.7-4.5-11.5-13.4-14.3c-4.6-1.5-7.5-2.5-8.6-3.1
	c-1.1-0.6-2.3-1.5-3.2-2.8c-1.1-1.5-1.7-3.2-1.7-5.3c0-2.3,0.9-4.2,2.6-5.7s3.9-2.3,6.5-2.3c3.2,0,6.2,0.8,8.8,2.5
	c2.6,1.7,4.4,3.9,5.3,6.4c0.3,1.1,0.8,1.7,1.1,1.7c0.5,0,0.8-0.3,0.8-1.1c0-0.2-0.1-0.7-0.2-1.5l-0.6-3.7c-0.3-2.1-0.5-3.2-0.5-3.7
	c0-1.3-0.3-1.8-0.9-1.7c-0.2,0-0.3,0-0.3,0.1l-0.5,0.5c-0.3,0.2-0.6,0.3-0.9,0.3c-0.2,0-0.5,0-0.7-0.1l-2.5-1
	c-1.8-0.8-4-1.1-6.5-1.1C466.9,702.6,463.2,703.7,460.3,706.2 M421.3,706.2c-2.9,2.4-4.4,5.6-4.4,9.5c0,3.4,1.1,6.3,3.3,8.5
	c2.2,2.2,6,4.2,11.4,6c5.2,1.7,8.3,3.1,9.4,4c2.1,1.8,3.2,4.1,3.2,6.8c0,2.8-1.1,5.2-3.4,7.1s-5.2,3-8.4,3c-3.3,0-6.3-1-9.1-3.1
	c-2.8-2.1-4.6-4.6-5.5-7.6c-0.3-1.1-0.7-1.7-1.1-1.7s-0.7,0.3-0.7,1c0,0.9,0.3,2.4,0.9,4.6c0.6,1.9,0.8,3.1,0.9,3.3
	c0.3,1.4,0.5,2.2,0.7,2.5c0.1,0.3,0.5,0.7,0.9,0.9c1,0.7,2.6,1.3,4.9,1.8c2.2,0.6,4.2,0.8,6.1,0.8c5.2,0,9.3-1.4,12.6-4.4
	c3.3-2.9,4.9-6.5,4.9-11c0-6.7-4.5-11.5-13.4-14.3c-4.6-1.5-7.5-2.5-8.6-3.1c-1.1-0.6-2.3-1.5-3.2-2.8c-1.1-1.5-1.7-3.2-1.7-5.3
	c0-2.3,0.9-4.2,2.6-5.7s3.9-2.3,6.5-2.3c3.2,0,6.2,0.8,8.8,2.5c2.6,1.7,4.4,3.9,5.3,6.4c0.3,1.1,0.8,1.7,1.1,1.7
	c0.5,0,0.8-0.3,0.8-1.1c0-0.2-0.1-0.7-0.2-1.5l-0.6-3.7c-0.3-2.1-0.5-3.2-0.5-3.7c0-1.3-0.3-1.8-0.9-1.7c-0.2,0-0.3,0-0.3,0.1
	l-0.5,0.5c-0.3,0.2-0.6,0.3-0.9,0.3c-0.2,0-0.5,0-0.7-0.1l-2.5-1c-1.8-0.8-4-1.1-6.5-1.1C428,702.6,424.2,703.7,421.3,706.2
	 M384.1,706.7c0.5-0.3,1.4-0.6,2.9-0.6h5.6c3.8,0,6.3,0.2,7.7,0.6c1.4,0.3,2.3,1,2.8,2.2c0.3,0.7,0.5,1.5,0.5,2.2v0.9
	c0,0.8,0.2,1.1,0.7,1c0.5,0,0.7-0.2,0.8-0.6s0.2-1.3,0.3-2.6l0.1-2.2c0.1-1.6,0.2-2.5,0.3-2.9c0.1-0.3,0.1-0.6,0.1-0.8
	c0-0.7-0.3-1-1.1-1c-0.3,0-0.8,0-1.5,0.1c-0.3,0-1.1,0.1-2.6,0.1l-5.2,0.2c-2.3,0.1-4.8,0.1-7.8,0.1c-4.8,0-8.9-0.2-12.4-0.6
	c-1-0.1-1.8-0.2-2.4-0.2c-1,0-1.6,0.3-1.6,1c0,0.5,0.3,0.7,1,0.7c2.2,0,3.7,0.6,4.5,1.8c0.8,1.1,1.1,3.6,1.1,7v30.6v2.4
	c0,2.9-0.9,4.6-2.6,5l-1.4,0.3c-0.6,0.1-0.9,0.5-0.9,0.8c0,0.6,0.3,0.8,1.1,0.8c0.3,0,0.9-0.1,1.8-0.2c1.7-0.3,4.7-0.5,8.9-0.5
	c3,0,6.9,0.2,11.5,0.7c1.1,0.1,2.2,0.1,2.9,0.1c3.2,0,6-1.3,8-3.9c1.7-2.2,2.6-4,2.6-5.6c0-0.7-0.2-0.9-0.7-0.9
	c-0.2,0-0.6,0.2-0.8,0.7c-2.8,4.2-8.8,6.4-18.2,6.4c-3,0-4.8-0.2-5.6-0.8c-0.7-0.5-1.1-1.8-1.1-3.8v-13.3V731c0-0.7,0.2-1.3,0.6-1.5
	c0.3-0.2,1.1-0.3,2.4-0.3h8c2.1,0,3.6,0.3,4.4,0.9c0.9,0.6,1.5,1.7,1.7,3.3l0.2,1c0.1,0.6,0.5,0.8,0.9,0.8s0.7-0.3,0.7-0.9
	c0-0.2,0-0.6-0.1-1c-0.1-1.5-0.2-2.9-0.2-4.4c0-1.9,0.1-4,0.3-6.4c0-0.3,0-0.6,0-0.8c0-0.6-0.2-0.9-0.7-0.9s-0.8,0.2-0.9,0.9
	c-0.3,1.6-0.7,2.6-1,3c-0.3,0.5-1.3,0.8-2.5,1c-1.5,0.3-3.4,0.5-6,0.5h-5.6c-1,0-1.6-0.1-1.8-0.3c-0.2-0.2-0.3-0.9-0.3-2.1v-14.6
	C383.6,707.8,383.8,707,384.1,706.7 M364.4,715v-3.9c0-2.3,0.2-3.9,0.7-4.7s1.5-1.5,2.9-1.8c0.5-0.1,0.8-0.3,0.7-0.7
	c0-0.5-0.3-0.8-1-0.8c-0.5,0-1,0.1-1.7,0.2c-0.9,0.1-2.1,0.2-3.6,0.2c-2.8,0-5-0.1-6.7-0.2c-0.7-0.1-1.3-0.1-1.5-0.1
	c-0.7,0-1,0.2-1,0.7c0,0.5,0.3,0.8,1,0.9c2.5,0.5,4.2,1,5.2,1.9c0.9,0.8,1.6,2.3,1.8,4.4l0.5,8.4v4.9v17.9c0,0.5-0.1,0.7-0.3,0.7
	c-0.1,0-0.5-0.2-1-0.9L327,704.3c-0.6-0.7-1.3-1-1.8-1c-0.3,0-0.8,0-1.4,0h-0.6l-2.4-0.1h-1.5c-0.2,0-0.5,0-0.6,0
	c-0.6,0-0.8,0.2-0.8,0.7c0,0.5,0.3,0.7,1,0.8c2.5,0.3,4.5,1.7,5.7,4.1c1.4,2.4,1.9,5.7,1.9,9.9v24.7c0,2.6-0.3,4.5-1,5.6
	c-0.7,1.1-2.1,2.1-4.1,2.8c-0.7,0.2-1,0.6-1,0.9c0,0.5,0.3,0.7,1,0.7c0.2,0,0.7,0,1.4-0.1c0.8-0.1,1.7-0.1,2.6-0.1l1.7-0.1l3.7,0.2
	c1.8,0.1,2.9,0.1,3.1,0.2c0.3,0,0.8,0.1,1,0.1c0.5,0,0.8-0.2,0.8-0.7c0-0.6-0.3-0.8-1.1-0.9c-1.9-0.3-3.2-0.7-3.8-1.4
	c-0.7-0.6-1-1.7-1.3-3.3l-0.1-2.5v-1.5v-24.5c0-1,0.2-1.6,0.7-1.6c0.2,0,0.3,0.1,0.5,0.2l0.3,0.3l30.5,34.9l0.8,0.9
	c0.2,0.2,0.5,0.3,0.8,0.3c0.6,0,0.9-0.2,1-0.8s0.2-2.3,0.2-4.9v-30.3L364.4,715z M311.9,715v-3.9c0-2.3,0.2-3.9,0.7-4.7
	s1.5-1.5,2.9-1.8c0.5-0.1,0.8-0.3,0.7-0.7c0-0.5-0.3-0.8-1-0.8c-0.5,0-1,0.1-1.7,0.2c-0.9,0.1-2.1,0.2-3.6,0.2c-2.8,0-5-0.1-6.7-0.2
	c-0.7-0.1-1.3-0.1-1.5-0.1c-0.7,0-1,0.2-1,0.7c0,0.5,0.3,0.8,1,0.9c2.5,0.5,4.2,1,5.2,1.9c0.9,0.8,1.6,2.3,1.8,4.4l0.5,8.4v4.9v17.9
	c0,0.5-0.1,0.7-0.3,0.7c-0.1,0-0.5-0.2-1-0.9l-33.3-37.7c-0.6-0.7-1.3-1-1.8-1c-0.3,0-0.8,0-1.4,0h-0.6l-2.4-0.1h-1.5
	c-0.2,0-0.5,0-0.6,0c-0.6,0-0.8,0.2-0.8,0.7c0,0.5,0.3,0.7,1,0.8c2.5,0.3,4.5,1.7,5.7,4.1c1.4,2.4,1.9,5.7,1.9,9.9v24.7
	c0,2.6-0.3,4.5-1,5.6c-0.7,1.1-2.1,2.1-4.1,2.8c-0.7,0.2-1,0.6-1,0.9c0,0.5,0.3,0.7,1,0.7c0.2,0,0.7,0,1.4-0.1
	c0.8-0.1,1.7-0.1,2.6-0.1l1.7-0.1l3.7,0.2c1.8,0.1,2.9,0.1,3.1,0.2c0.3,0,0.8,0.1,1,0.1c0.5,0,0.8-0.2,0.8-0.7
	c0-0.6-0.3-0.8-1.1-0.9c-1.9-0.3-3.2-0.7-3.8-1.4c-0.7-0.6-1-1.7-1.3-3.3l-0.1-2.5v-1.5v-24.5c0-1,0.2-1.6,0.7-1.6
	c0.2,0,0.3,0.1,0.5,0.2l0.3,0.3l30.5,34.9l0.8,0.9c0.2,0.2,0.5,0.3,0.8,0.3c0.6,0,0.9-0.2,1-0.8c0.1-0.6,0.2-2.3,0.2-4.9v-30.3
	L311.9,715z M238.6,706.7c0.5-0.3,1.4-0.6,2.9-0.6h5.6c3.8,0,6.3,0.2,7.7,0.6c1.4,0.3,2.3,1,2.8,2.2c0.3,0.7,0.5,1.5,0.5,2.2v0.9
	c0,0.8,0.2,1.1,0.7,1c0.5,0,0.7-0.2,0.8-0.6c0.1-0.3,0.2-1.3,0.3-2.6l0.1-2.2c0.1-1.6,0.2-2.5,0.3-2.9s0.1-0.6,0.1-0.8
	c0-0.7-0.3-1-1.1-1c-0.3,0-0.8,0-1.5,0.1c-0.3,0-1.1,0.1-2.6,0.1l-5.2,0.2c-2.3,0.1-4.8,0.1-7.8,0.1c-4.8,0-8.9-0.2-12.4-0.6
	c-1-0.1-1.8-0.2-2.4-0.2c-1,0-1.6,0.3-1.6,1c0,0.5,0.3,0.7,1,0.7c2.2,0,3.7,0.6,4.5,1.8c0.8,1.1,1.1,3.6,1.1,7v30.6v2.4
	c0,2.9-0.9,4.6-2.6,5l-1.4,0.3c-0.6,0.1-0.9,0.5-0.9,0.8c0,0.6,0.3,0.8,1.1,0.8c0.3,0,0.9-0.1,1.8-0.2c1.7-0.3,4.7-0.5,8.9-0.5
	c3,0,6.9,0.2,11.5,0.7c1.1,0.1,2.1,0.1,2.9,0.1c3.2,0,6-1.3,8-3.9c1.7-2.2,2.6-4,2.6-5.6c0-0.7-0.2-0.9-0.7-0.9
	c-0.2,0-0.6,0.2-0.8,0.7c-2.6,4.2-8.8,6.4-18.2,6.4c-3,0-4.8-0.2-5.6-0.8c-0.7-0.5-1.1-1.8-1.1-3.8v-13.3V731c0-0.7,0.2-1.3,0.6-1.5
	c0.3-0.2,1.1-0.3,2.4-0.3h8c2.1,0,3.6,0.3,4.4,0.9c0.9,0.6,1.5,1.7,1.7,3.3l0.2,1c0.1,0.6,0.5,0.8,0.9,0.8c0.5,0,0.7-0.3,0.7-0.9
	c0-0.2,0-0.6-0.1-1c-0.1-1.5-0.2-2.9-0.2-4.4c0-1.9,0.1-4,0.3-6.4c0-0.3,0-0.6,0-0.8c0-0.6-0.2-0.9-0.7-0.9s-0.8,0.2-0.9,0.9
	c-0.3,1.6-0.7,2.6-1,3c-0.3,0.5-1.3,0.8-2.5,1c-1.5,0.3-3.4,0.5-6,0.5h-5.6c-1,0-1.6-0.1-1.8-0.3c-0.2-0.2-0.3-0.9-0.3-2.1v-14.6
	C237.9,707.8,238.2,707,238.6,706.7 M219,708.1c0.7,0.6,1.3,1.6,1.5,3.3c0.1,0.8,0.5,1.1,0.9,1.1c0.6,0,0.8-0.5,0.8-1.1
	c0-0.3-0.1-0.9-0.2-1.7c-0.1-0.7-0.2-1.7-0.2-3.1c0-1.4-0.1-2.3-0.5-2.5s-1-0.5-2.4-0.5h-39c-0.8,0-1.4,0.2-1.6,0.6s-0.3,1-0.3,2.2
	c0,1.1-0.2,2.5-0.6,4.2c-0.3,1.4-0.5,2.3-0.5,2.8c0,0.6,0.2,0.9,0.7,0.9c0.5,0,0.8-0.5,1-1.4c0.5-2.2,1.1-3.7,2.1-4.5
	s2.3-1.1,4.2-1.1h9.6c0.9,0,1.5,0.1,1.7,0.3c0.2,0.2,0.3,0.8,0.3,1.7v0.9v35.9c0,2.1-0.3,3.4-1,4.2c-0.7,0.8-1.9,1.3-3.8,1.5
	c-0.8,0.1-1.1,0.3-1.1,0.7c0,0.6,0.3,0.8,1,0.8c0.2,0,1-0.1,2.4-0.2c0.7-0.1,1.6-0.1,2.5-0.1h2.9h2.6c1.7,0,2.8,0,3.2,0.1
	c0.9,0.1,1.5,0.2,1.7,0.2c0.7,0,1-0.2,1-0.8c0-0.3-0.5-0.7-1.3-0.8c-3-0.6-4.6-2.2-4.7-5v-1.4v-35.5c0-1.1,0.1-1.8,0.5-2.2
	c0.2-0.3,0.9-0.5,2.1-0.5h10.2C217,707.3,218.2,707.5,219,708.1"/>
<path fill="#5C5D60" d="M558.6,673.8c0-0.6,0.1-1,0.3-1.3c0.2-0.2,0.7-0.3,1.3-0.3h0.7h2.1c2.4,0,3.8,0.7,4.2,2.1
	c0,0.1,0.1,0.3,0.1,0.6v0.6c0,0.3,0.1,0.5,0.3,0.5c0.5,0,0.6-0.5,0.6-1.4c0-0.2,0-0.3,0-0.7l-0.1-1.3c0-0.1,0-0.5-0.1-1.1
	c0-0.6-0.2-0.8-0.5-0.8c-0.2,0-0.7,0-1.3,0.1c-1.5,0.1-3,0.2-4.5,0.2h-4.2h-2.8c-0.7,0-1.4,0-2.1-0.1c-0.5,0-0.7,0-0.8,0
	c-0.3,0-0.6,0.1-0.6,0.5c0,0.2,0.1,0.3,0.5,0.3c1,0,1.8,0.3,2.4,0.8c0.5,0.5,0.7,1.3,0.7,2.6v13.3c0,1.3-0.1,2.2-0.3,2.8
	c-0.2,0.6-0.7,0.9-1.3,1.1c-0.3,0.1-0.5,0.2-0.5,0.5c0,0.2,0.2,0.5,0.6,0.5c0.2,0,0.8,0,1.6-0.1c0.6-0.1,1.3-0.1,2.1-0.1h1.8
	c1.1,0,1.9,0,2.3,0.1c0.5,0,0.7,0.1,0.9,0.1c0.2,0,0.3-0.1,0.3-0.5c0-0.2-0.1-0.5-0.6-0.5c-1.3-0.1-2.1-0.5-2.4-0.9
	c-0.6-0.7-0.8-1.9-0.8-3.6v-1.9v-1.3c0-1.4,0.1-2.1,0.3-2.3c0.2-0.2,1.1-0.3,2.8-0.3c1.3,0,2.2,0.2,2.6,0.6s0.9,1.1,1,2.3
	c0,0.3,0.2,0.5,0.3,0.5c0.3,0,0.5-0.1,0.5-0.3c0-0.1,0-0.3,0-0.7l-0.2-3.1c-0.1-0.8-0.1-1.6-0.1-2.2c0-0.2,0-0.3,0-0.5
	c0-0.2,0-0.3,0-0.5c0-0.2-0.1-0.5-0.5-0.5c-0.1,0-0.2,0.1-0.3,0.3c-0.3,1-0.8,1.7-1.3,2.1s-1,0.6-1.8,0.6h-1.7h-0.6
	c-0.5,0-0.8-0.1-0.9-0.3c-0.1-0.2-0.2-0.6-0.2-1.3L558.6,673.8L558.6,673.8z M539.4,673.8c1,0.9,1.8,2.2,2.4,3.8
	c0.6,1.6,0.9,3.2,0.9,4.9c0,2.9-0.7,5.3-1.9,7c-1.4,1.7-3.1,2.6-5.3,2.6c-2.4,0-4.5-1-6-3.2c-1.5-2.1-2.3-4.8-2.3-8.3
	c0-2.9,0.6-5,1.8-6.7c1.3-1.6,2.9-2.4,5-2.4C536.2,671.6,537.9,672.3,539.4,673.8 M530.2,671.4c-1.6,0.7-3,1.6-4,2.8
	c-0.9,1-1.6,2.2-2.2,3.7s-0.8,2.9-0.8,4.4c0,3.4,1,6.1,3.1,8.1c2.1,2.1,4.8,3.1,8.4,3.1c3.7,0,6.5-1.1,8.6-3.6
	c2.2-2.4,3.2-5.3,3.2-8.8c0-3.2-1-5.7-3.1-7.7c-2.1-1.9-4.8-3-8.1-3C533.6,670.5,531.8,670.8,530.2,671.4 M497.8,683.2
	c0-0.2,0.2-0.5,0.5-0.8c1.1-1.8,2.4-4,3.8-6.7c0.8-1.5,1.4-2.5,1.9-3c0.5-0.6,1.1-0.9,1.9-1c0.3-0.1,0.6-0.2,0.6-0.5
	c0-0.2-0.1-0.3-0.5-0.3c-0.5,0-0.9,0-1.3,0l-1.4,0.1c-0.5,0-0.8,0-1.1,0c-0.7,0-1.1,0-1.6-0.1l-1-0.1c-0.2,0-0.6,0-0.8,0
	c-0.2,0-0.5,0.1-0.5,0.5c0,0.2,0.1,0.3,0.5,0.3c0.7,0.1,1.3,0.3,1.8,0.7c0.6,0.3,0.8,0.8,0.8,1.3c0,0.6-0.6,1.8-1.7,4
	c-0.6,1-0.9,1.7-1,1.9c-0.6,1.1-1,1.6-1.4,1.6c-0.3,0-0.7-0.3-1-1.1c-0.1-0.2-0.5-0.9-0.9-1.8l-1.3-2.4c-0.8-1.5-1.1-2.5-1.1-3
	c0-0.6,0.5-0.9,1.3-1c0.3-0.1,0.6-0.2,0.6-0.5c0-0.2-0.2-0.5-0.7-0.5c-0.2,0-0.7,0-1.4,0.1c-0.9,0.1-1.8,0.1-2.6,0.1
	c-0.9,0-1.9-0.1-3.2-0.2c-0.6-0.1-1-0.1-1.3-0.1c-0.3,0-0.5,0.1-0.5,0.5c0,0.2,0.2,0.5,0.6,0.5c1.3,0.1,2.4,1.1,3.4,3l2.4,4.6
	c0.7,1.3,1.3,2.4,1.8,3.3c0.5,0.8,0.7,1.5,0.7,2.3v3.1c0,1.5-0.2,2.4-0.7,3s-1.3,0.9-2.4,1.1c-0.3,0-0.5,0.1-0.5,0.3
	c0,0.3,0.1,0.6,0.3,0.6s0.6,0,0.9-0.1c0.7-0.1,1.9-0.2,4-0.2c0.8,0,1.5,0,1.8,0.1l2.3,0.2c0.3,0,0.6,0,0.8,0c0.5,0,0.7-0.1,0.7-0.5
	c0-0.2-0.1-0.5-0.6-0.5c-1.9-0.1-3.1-0.8-3.2-1.9l-0.1-1.1v-4.7C497.8,683.8,497.8,683.4,497.8,683.2 M472.4,672.9
	c0.5-0.2,1.4-0.3,3.1-0.3c1.3,0,2.2,0.2,2.8,0.7c0.7,0.5,1,1.1,1.3,2.2c0.1,0.5,0.2,0.6,0.6,0.6c0.3,0,0.5-0.2,0.5-0.6
	s0-0.8-0.1-1.4c-0.1-0.7-0.1-1.1-0.1-1.3l-0.1-1.1c0-0.5-0.3-0.7-0.9-0.7c-0.1,0-0.6,0-1,0c-2.9,0.1-5.5,0.2-8,0.2h-3.9H463
	c-0.8,0-1.4,0-1.8,0c-0.2,0-0.5,0-0.6,0c-0.5,0-0.7,0.2-0.7,0.6l-0.1,1l-0.2,1.5l-0.1,1.4c-0.1,0.6-0.1,0.9-0.1,1.3s0.1,0.5,0.5,0.5
	c0.2,0,0.5-0.2,0.6-0.7l0.1-0.5c0.3-1.1,0.6-1.9,0.8-2.2c0.2-0.3,0.6-0.6,1.1-0.8c0.8-0.3,2.3-0.5,4.4-0.5c0.9,0,1.4,0.5,1.4,1.3
	v14.3v0.8c0,0.9-0.2,1.7-0.7,2.3s-1.1,0.8-1.9,0.9c-0.3,0-0.6,0.1-0.6,0.1c-0.1,0.1-0.1,0.2-0.1,0.5s0.1,0.5,0.5,0.5
	c0.1,0,0.3,0,0.8-0.1l3.6-0.2c0.5,0,1,0,1.7,0c0.2,0,0.5,0,0.7,0l2.1,0.1h1.3c0.2,0,0.3,0,0.5,0c0.3,0,0.5-0.1,0.5-0.3
	c0-0.3-0.2-0.6-0.6-0.6c-1.4-0.1-2.3-0.5-2.8-1.3c-0.6-0.8-0.8-2.1-0.8-3.9v-12.2C471.8,673.8,472,673.1,472.4,672.9 M451.3,674.1
	c0-0.9,0.1-1.5,0.3-1.8s0.7-0.6,1.5-0.7c0.2,0,0.3-0.1,0.5-0.1c0-0.1,0.1-0.2,0.1-0.3c0-0.2-0.2-0.3-0.6-0.3c-0.6,0-1.5,0-2.5,0.1
	l-1.1,0.1c-0.9,0.1-1.6,0.1-2.3,0.1c-0.9,0-1.6,0-1.9-0.1c-0.3-0.1-0.7-0.1-0.9-0.1c-0.2,0-0.3,0.1-0.3,0.5c0,0.2,0.1,0.3,0.2,0.5
	c0.1,0.1,0.5,0.1,1,0.2c0.9,0.1,1.5,0.5,1.8,0.8c0.3,0.5,0.6,1.1,0.6,2.1v12.8v1.4c0,0.9-0.1,1.6-0.3,1.9c-0.2,0.5-0.8,0.7-1.5,1
	l-0.5,0.3v0.1c0.1,0.2,0.2,0.3,0.5,0.3s0.6,0,1.1-0.1c0.6-0.1,1.5-0.1,2.5-0.1c0.9,0,1.9,0.1,3.4,0.2c0.6,0,1,0.1,1.3,0.1
	c0.7,0,1-0.1,1-0.5c0-0.3-0.2-0.5-0.8-0.5c-0.8,0-1.5-0.2-1.9-0.7c-0.5-0.5-0.8-1-0.9-1.9l-0.1-1.6v-13.8H451.3z M426.6,672.3
	c-1.1,1.1-1.7,2.6-1.7,4.5c0,1.5,0.5,2.8,1.3,3.7c0.8,0.9,2.4,1.9,4.7,3l2.4,1.1c1.1,0.5,1.8,1,2.3,1.5c0.5,0.6,0.7,1.3,0.7,2.1
	c0,1-0.5,2.1-1.3,2.9c-0.8,0.8-1.8,1.3-2.9,1.3c-1.4,0-2.8-0.6-4-1.8c-1.3-1.3-2.2-2.8-2.8-4.7c-0.1-0.2-0.1-0.3-0.3-0.3
	c-0.3,0-0.5,0.2-0.5,0.8c0,0.5,0.2,1.4,0.6,2.8c0.2,0.9,0.5,1.7,0.5,2.2c0,0.5,0.1,0.7,0.2,0.8c0.1,0.1,0.3,0.2,0.9,0.2
	c0.3,0.1,0.9,0.2,1.7,0.5c1.6,0.5,2.8,0.8,3.6,0.8c1.8,0,3.4-0.7,4.7-2.1c1.4-1.4,2.1-3,2.1-4.9c0-1.7-0.5-3.1-1.5-4.4
	c-0.8-1-2.5-2.1-5-3.1c-2.2-0.9-3.4-1.5-3.8-1.8c-0.7-0.6-0.9-1.3-0.9-2.2c0-0.9,0.3-1.6,1-2.3c0.7-0.7,1.6-1,2.5-1
	c1.4,0,2.8,0.6,4,1.6c1.3,1.1,2.1,2.4,2.4,3.9c0.1,0.5,0.2,0.6,0.5,0.6s0.5-0.2,0.5-0.7c0-0.1,0-0.2,0-0.3l-0.1-1.5l-0.2-1.6
	c0-0.2,0-0.3,0-0.6v-1.3c0-0.3-0.1-0.6-0.3-0.6c-0.1,0-0.2,0-0.2,0.1l-0.6,0.3c-0.1,0.1-0.3,0.1-0.5,0.1c-0.2,0-0.6-0.1-1-0.3
	l-1-0.5c-0.9-0.3-1.9-0.6-3-0.6C429.2,670.5,427.7,671,426.6,672.3 M404.6,672.4c0.2-0.3,0.8-0.5,1.5-0.5c1.6,0,3,0.6,4,1.6
	c1,1,1.6,2.4,1.6,4c0,1.3-0.3,2.2-1.1,3c-0.3,0.3-0.8,0.6-1.3,0.7c-0.5,0.1-1.6,0.1-3.6,0.1c-0.7,0-1.1-0.1-1.3-0.2
	c-0.2-0.2-0.2-0.6-0.2-1.3v-5.6C404.1,673.2,404.2,672.6,404.6,672.4 M404.1,683.3c0-0.5,0.1-0.7,0.2-0.8l0.7-0.1h1
	c0.8,0,1.5,0.1,1.8,0.5c0.3,0.3,0.8,1,1.5,2.3c1.5,3,2.8,5,3.7,6.2c0.9,1,1.9,1.6,3.1,1.6c0.7,0,1.5-0.2,2.3-0.6
	c0.9-0.3,1.4-0.8,1.4-1c0-0.2-0.1-0.3-0.3-0.3c-0.1,0-0.2,0-0.3,0c-0.2,0-0.5,0.1-0.7,0.1c-0.6,0-1.1-0.2-1.6-0.6s-0.9-1-1.5-2.1
	l-1.6-3l-1.5-2.5c-0.2-0.3-0.3-0.6-0.5-0.8c-0.1-0.1-0.1-0.2-0.1-0.3s0.1-0.2,0.3-0.3c1-0.5,1.8-1.1,2.4-1.9
	c0.6-0.9,0.9-1.8,0.9-2.9c0-1.7-0.7-3.1-2.1-4.2c-1.4-1.1-3-1.7-5-1.7c-0.7,0-1.9,0.1-3.8,0.2c-1.6,0.1-2.9,0.2-3.9,0.2
	c-1,0-1.9,0-2.8-0.1c-0.2,0-0.5,0-0.6,0c-0.3,0-0.5,0.1-0.5,0.5s0.2,0.5,0.7,0.6c1.1,0.1,2.1,0.6,2.6,1.3c0.3,0.5,0.5,1.3,0.5,2.6
	v11.7v0.6v1.5c0,0.8-0.1,1.4-0.5,1.7c-0.2,0.3-0.8,0.7-1.5,0.9c-0.2,0.1-0.3,0.2-0.3,0.5c0,0.3,0.2,0.5,0.6,0.5c0.1,0,0.3,0,0.6,0
	l1-0.1l1.4-0.1c0.6,0,1.1-0.1,1.9-0.1c0.9,0,1.7,0,2.6,0.1c0.3,0,0.6,0,0.7,0c0.3,0,0.6-0.1,0.6-0.5c0-0.3-0.2-0.5-0.7-0.6
	c-1.1-0.1-1.8-0.6-2.2-1.3s-0.6-2.1-0.6-4.1v-3.3H404.1z M380.8,673.9c0-0.9,0.2-1.5,0.8-1.6l1.1-0.1h1.9c1.7,0,3,0.2,3.8,0.7
	s1.1,1.3,1.1,2.3c0,0.5,0.1,0.7,0.3,0.7c0.5,0,0.6-0.5,0.6-1.3c0-0.5,0-1-0.1-2.1c-0.1-0.7-0.1-1-0.1-1.4s-0.1-0.6-0.5-0.6
	c-0.1,0-0.1,0-0.2,0c-0.8,0.1-3,0.1-6.5,0.1l-6.1-0.1l-1.6-0.1c-0.3,0-0.6,0-0.8,0c-0.2,0-0.5,0-0.5,0c-0.3,0-0.6,0.1-0.6,0.3
	s0.1,0.5,0.5,0.5c1.3,0.1,2.1,0.5,2.4,0.9c0.3,0.5,0.6,1.3,0.6,2.4v12.7c0,1-0.1,1.7-0.2,2.3c-0.1,0.7-0.3,1.1-0.6,1.4
	c-0.2,0.2-0.7,0.5-1.3,0.8c-0.2,0.1-0.3,0.2-0.3,0.5c0,0.2,0.1,0.3,0.5,0.3c0.2,0,0.5,0,0.9,0c1.6-0.1,2.8-0.1,3.6-0.1
	c1.1,0,2.1,0,2.8,0.1l1.8,0.2c0.8,0.1,1.6,0.1,2.3,0.1c1.1,0,2.1-0.2,2.9-0.6c0.7-0.3,1.3-0.9,1.7-1.8c0.6-1,0.8-2.1,0.8-3.1
	c0-0.1,0-0.2-0.1-0.3s-0.2-0.1-0.3-0.1c0,0-0.1,0.1-0.2,0.2c-1.4,2.6-4.2,4-8.6,4c-0.5,0-0.9-0.1-1.1-0.2c-0.2-0.2-0.5-0.5-0.7-1
	c-0.2-0.7-0.3-1.7-0.3-3.3v-1.5c0-1.1,0-1.9,0.1-2.5c0.1-0.5,0.2-0.8,0.3-0.9c0.2-0.1,0.6-0.2,1-0.2h1.1c1.1,0,1.8,0,2.3,0.1
	c0.5,0.1,0.8,0.2,1,0.5c0.5,0.5,0.8,1.1,0.9,2.1c0.1,0.5,0.2,0.7,0.5,0.6c0.1,0,0.2,0,0.2-0.1c0,0,0-0.1,0-0.3v-0.8
	c0-0.6,0-1.4-0.1-2.2c-0.1-1.3-0.1-2.1-0.1-2.4c0-0.2,0-0.5,0-0.7c0-0.3,0-0.6,0-0.7c0-0.3-0.1-0.5-0.3-0.5c-0.2,0-0.3,0.1-0.5,0.3
	l-0.3,0.8c-0.6,1.1-1.4,1.7-2.5,1.7h-1.4H382h-0.5c-0.6,0-0.9-0.1-1-0.5c-0.1-0.2-0.2-0.9-0.2-1.9v-2.9L380.8,673.9z M353.1,673.1
	c0-0.8,0.3-1.3,1.1-1.4c0.5-0.1,0.7-0.2,0.7-0.5c0-0.3-0.1-0.5-0.5-0.5c-0.2,0-0.7,0-1.4,0.1l-1.7,0.1l-2.8-0.1
	c-0.7,0-1.4,0-1.9-0.1c-0.2,0-0.3,0-0.5,0c-0.3,0-0.5,0.1-0.5,0.5c0,0.2,0.2,0.5,0.7,0.6c0.8,0.1,1.4,0.6,1.8,1.1
	c0.5,0.7,1,1.9,1.7,3.9c0.6,1.7,1.4,3.6,2.3,5.7l3.8,8.7l0.5,1l0.3,0.8c0.1,0.2,0.2,0.3,0.5,0.3c0.3,0,0.6-0.2,0.8-0.7
	c0.1-0.2,0.5-0.9,1-2.1c0.1-0.1,0.6-1.1,1.5-3.2l2.8-6.1l2.4-5.5c0.7-1.6,1.3-2.8,1.7-3.2c0.3-0.6,0.9-0.8,1.5-0.9
	c0.3-0.1,0.5-0.2,0.5-0.5s-0.1-0.5-0.3-0.5c-0.1,0-0.3,0-0.7,0.1c-0.7,0.1-1.6,0.2-2.5,0.2c-0.3,0-0.9,0-1.6-0.1l-1.7-0.1
	c-0.5,0-0.8,0-0.9,0c-0.2,0-0.5,0.1-0.5,0.3s0.2,0.3,0.6,0.5c0.9,0.1,1.5,0.5,1.9,0.8c0.5,0.5,0.7,0.9,0.7,1.6
	c0,1.1-0.6,3.1-1.8,5.7l-3.7,8c-0.1,0.3-0.2,0.5-0.3,0.5c-0.1,0-0.2-0.2-0.5-0.6l-3.6-8.8C353.6,676,353.1,674,353.1,673.1
	 M337.9,674.1c0-0.9,0.1-1.5,0.3-1.8c0.2-0.3,0.7-0.6,1.5-0.7c0.2,0,0.3-0.1,0.5-0.1c0-0.1,0.1-0.2,0.1-0.3c0-0.2-0.2-0.3-0.6-0.3
	c-0.6,0-1.5,0-2.5,0.1l-1.1,0.1c-0.9,0.1-1.6,0.1-2.3,0.1c-0.9,0-1.6,0-1.9-0.1c-0.3-0.1-0.7-0.1-0.9-0.1c-0.2,0-0.3,0.1-0.3,0.5
	c0,0.2,0.1,0.3,0.2,0.5c0.1,0.1,0.5,0.1,1,0.2c0.9,0.1,1.5,0.5,1.8,0.8c0.3,0.5,0.6,1.1,0.6,2.1v12.8v1.4c0,0.9-0.1,1.6-0.3,1.9
	c-0.2,0.5-0.8,0.7-1.5,1l-0.5,0.3v0.1c0.1,0.2,0.2,0.3,0.5,0.3s0.6,0,1.1-0.1c0.6-0.1,1.5-0.1,2.5-0.1c0.9,0,1.9,0.1,3.4,0.2
	c0.6,0,1,0.1,1.3,0.1c0.7,0,1-0.1,1-0.5c0-0.3-0.2-0.5-0.8-0.5c-0.8,0-1.5-0.2-1.9-0.7c-0.5-0.5-0.8-1-0.9-1.9l-0.1-1.6v-13.8H337.9
	z M309.3,673.6l-1.1-1.3c-0.6-0.7-1-1.1-1.3-1.4c-0.2-0.1-0.5-0.2-0.8-0.2c-0.2,0-0.6,0-0.9,0c-0.9,0.1-1.8,0.1-2.8,0.1h-0.7h-1.1
	c-0.3,0-0.6,0.1-0.6,0.5c0,0.2,0.1,0.3,0.5,0.5c2.4,0.1,3.7,1.9,3.7,5.2v7l-0.1,3.8c0,1.4-0.2,2.3-0.6,3s-0.9,1.1-1.7,1.4
	c-0.3,0.1-0.5,0.2-0.5,0.5s0.1,0.3,0.5,0.3c0.1,0,0.5,0,0.8-0.1c0.8-0.1,1.8-0.2,2.9-0.2c1.1,0,2.1,0.1,3,0.2c0.3,0,0.5,0.1,0.7,0.1
	c0.3,0,0.5-0.1,0.5-0.5c0-0.2-0.1-0.3-0.5-0.5c-1.7-0.1-2.8-0.8-3.1-2.1c-0.3-1.1-0.5-3.3-0.5-6.7v-6.3v-0.5c0-0.5,0.1-0.7,0.3-0.7
	c0.1,0,0.2,0.1,0.6,0.5l14.7,16.3c0.2,0.2,0.5,0.3,0.6,0.3c0.2,0,0.3-0.1,0.3-0.5l-0.1-2.1V689v-1.8l0.1-1.4l0.2-10.1v-0.8
	c0-2.2,0.7-3.4,2.1-3.7c0.3,0,0.6-0.2,0.6-0.5c0-0.3-0.2-0.5-0.6-0.5c-0.1,0-0.2,0-0.5,0c-1.6,0.2-2.8,0.3-3.6,0.3
	c-0.3,0-0.8,0-1.4-0.1c-0.9-0.1-1.5-0.1-1.8-0.1c-0.3,0-0.5,0.1-0.5,0.5c0,0.2,0.2,0.3,0.6,0.3c1.5,0.1,2.5,0.6,3,1.5
	s0.8,2.6,0.8,5.2c0,2.2,0,4.4-0.1,6.8c0,0.7-0.1,1-0.3,1c-0.2,0-0.7-0.5-1.5-1.3l-0.6-0.6l-8.5-9.6
	C310,674.5,309.7,674.1,309.3,673.6 M287.5,671c0,0.3,0.2,0.5,0.6,0.5c0.9,0,1.7,0.2,2.3,0.8c0.6,0.6,0.9,1.4,0.9,2.3l0.1,3.3v1.3
	c0,3-0.2,5.3-0.6,6.9c-0.3,1.6-0.9,2.8-1.8,3.7c-1.3,1.3-3,1.8-5,1.8c-2.1,0-3.7-0.6-5-1.8c-0.9-0.8-1.4-1.7-1.7-2.9
	c-0.2-1.1-0.5-3-0.5-5.5v-2.9l0.2-4c0-1,0.2-1.7,0.5-2.1c0.2-0.3,0.7-0.6,1.4-0.7c0.3-0.1,0.6-0.1,0.6-0.2c0.1-0.1,0.1-0.2,0.1-0.3
	c0-0.3-0.2-0.5-0.8-0.5c-0.2,0-0.6,0-1.1,0.1c-1.3,0.1-2.4,0.2-3.4,0.2c-0.7,0-1.8-0.1-3.2-0.2c-0.3,0-0.6,0-0.7,0
	c-0.3,0-0.6,0.1-0.6,0.5c0,0.2,0.2,0.5,0.6,0.5c0.7,0.1,1.3,0.2,1.7,0.6c0.5,0.2,0.8,0.5,0.9,0.8s0.2,0.8,0.2,1.5v3l-0.2,6.2
	c0,4,1,6.8,3.1,8.1c1.5,1,3.7,1.5,6.4,1.5c3.9,0,6.7-1.3,8.3-3.8c0.7-1,1.1-2.5,1.5-4.4c0.3-1.9,0.5-4.4,0.5-7.5v-1.9v-1.4
	c0-1.6,0.5-2.5,1.3-2.6l0.6-0.1c0.2,0,0.5-0.2,0.5-0.3c0-0.2-0.1-0.5-0.5-0.5c-0.1,0-0.3,0-0.6,0c-0.5,0-0.9,0.1-1.4,0.1l-1.6,0.1
	l-1.7-0.1c-0.7,0-1.1-0.1-1.3-0.1c-0.2,0-0.3-0.1-0.3,0C287.6,670.7,287.5,670.8,287.5,671 M241.7,673.9c0-0.9,0.2-1.5,0.8-1.6
	l1.1-0.1h1.9c1.7,0,3,0.2,3.8,0.7c0.8,0.5,1.1,1.3,1.1,2.3c0,0.5,0.1,0.7,0.3,0.7c0.5,0,0.6-0.5,0.6-1.3c0-0.5,0-1-0.1-2.1
	c-0.1-0.7-0.1-1-0.1-1.4s-0.1-0.6-0.5-0.6c-0.1,0-0.1,0-0.2,0c-0.8,0.1-3,0.1-6.5,0.1l-6.1-0.1l-1.6-0.1c-0.3,0-0.6,0-0.8,0
	s-0.5,0-0.5,0c-0.3,0-0.6,0.1-0.6,0.3s0.1,0.5,0.5,0.5c1.3,0.1,2.1,0.5,2.4,0.9c0.3,0.5,0.6,1.3,0.6,2.4v12.7c0,1-0.1,1.7-0.2,2.3
	c-0.1,0.7-0.3,1.1-0.6,1.4c-0.2,0.2-0.7,0.5-1.3,0.8c-0.2,0.1-0.3,0.2-0.3,0.5c0,0.2,0.1,0.3,0.5,0.3c0.2,0,0.5,0,0.9,0
	c1.6-0.1,2.8-0.1,3.6-0.1c1.1,0,2.1,0,2.8,0.1l1.8,0.2c0.8,0.1,1.6,0.1,2.3,0.1c1.1,0,2.1-0.2,2.9-0.6c0.7-0.3,1.3-0.9,1.7-1.8
	c0.6-1,0.8-2.1,0.8-3.1c0-0.1,0-0.2-0.1-0.3c-0.1-0.1-0.2-0.1-0.3-0.1c0,0-0.1,0.1-0.2,0.2c-1.4,2.6-4.2,4-8.6,4
	c-0.5,0-0.9-0.1-1.1-0.2c-0.2-0.2-0.5-0.5-0.7-1c-0.2-0.7-0.3-1.7-0.3-3.3v-1.5c0-1.1,0-1.9,0.1-2.5c0.1-0.5,0.2-0.8,0.3-0.9
	c0.2-0.1,0.6-0.2,1-0.2h1.1c1.1,0,1.8,0,2.3,0.1s0.8,0.2,1,0.5c0.5,0.5,0.8,1.1,0.9,2.1c0.1,0.5,0.2,0.7,0.5,0.6
	c0.1,0,0.2,0,0.2-0.1c0,0,0-0.1,0-0.3v-0.8c0-0.6,0-1.4-0.1-2.2c-0.1-1.3-0.1-2.1-0.1-2.4c0-0.2,0-0.5,0-0.7c0-0.3,0-0.6,0-0.7
	c0-0.3-0.1-0.5-0.3-0.5c-0.2,0-0.3,0.1-0.5,0.3l-0.3,0.8c-0.6,1.1-1.4,1.7-2.5,1.7h-0.7h-0.7h-0.5c-0.6,0-0.9-0.1-1-0.5
	c-0.1-0.2-0.2-0.9-0.2-1.9v-2.9L241.7,673.9z M222,682.3c0.1,0.2,0.2,0.8,0.2,1.9v3.6v0.9c0,1.1-0.1,1.9-0.5,2.5
	c-0.3,0.6-0.8,0.9-1.6,1c-0.2,0-0.5,0.1-0.5,0.3c0,0.3,0.2,0.6,0.6,0.6c0.1,0,0.6,0,1.3-0.1c1.1-0.1,1.9-0.2,2.6-0.2
	c1,0,2.2,0.1,3.6,0.2c0.6,0.1,0.9,0.1,1.1,0.1c0.6,0,0.8-0.1,0.8-0.5c0-0.2-0.2-0.5-0.6-0.5c-1.1,0-1.9-0.3-2.4-1s-0.7-1.7-0.7-3.3
	V674c0-1.4,0.7-2.2,1.9-2.4c0.3,0,0.5-0.2,0.5-0.5c0-0.3-0.2-0.5-0.6-0.5c-0.3,0-1,0-1.7,0.1c-1.3,0.1-2.2,0.2-2.5,0.2
	c-1.1,0-2.2-0.1-3.1-0.2c-0.5-0.1-0.9-0.1-1-0.1c-0.3,0-0.5,0.1-0.5,0.5c0,0.2,0.1,0.5,0.5,0.5l0.7,0.1c1.5,0.2,2.3,1.1,2.3,2.5v3.4
	c0,1.1-0.1,1.9-0.2,2.2c-0.1,0.2-0.6,0.3-1.1,0.3h-7.8c-0.9,0-1.4-0.1-1.6-0.2c-0.1-0.2-0.2-0.8-0.2-1.9v-4.1c0-1.4,0.7-2.2,1.9-2.4
	c0.3,0,0.5-0.2,0.5-0.5c0-0.3-0.2-0.5-0.6-0.5c-0.3,0-1,0-1.7,0.1c-1.3,0.1-2.2,0.2-2.5,0.2c-1.1,0-2.2-0.1-3.1-0.2
	c-0.6-0.1-0.9-0.1-1-0.1c-0.3,0-0.6,0.1-0.6,0.5c0,0.2,0.1,0.5,0.5,0.5c1.1,0.2,1.9,0.6,2.4,0.9c0.5,0.3,0.7,0.9,0.7,1.7v13.4v0.9
	c0,1.1-0.1,1.9-0.5,2.5c-0.3,0.6-0.8,0.9-1.6,1c-0.2,0-0.5,0.1-0.5,0.3c0,0.3,0.2,0.6,0.6,0.6c0.1,0,0.6,0,1.3-0.1
	c1.1-0.1,1.9-0.2,2.6-0.2c1,0,2.2,0.1,3.6,0.2c0.6,0.1,0.9,0.1,1.1,0.1c0.6,0,0.8-0.1,0.8-0.5c0-0.2-0.2-0.5-0.6-0.5
	c-1.1,0-1.9-0.3-2.4-1c-0.5-0.7-0.7-1.7-0.7-3.3v-3.9c0-0.8,0.1-1.4,0.2-1.6c0.2-0.2,0.7-0.3,1.4-0.3h7.7
	C221.5,681.9,221.9,682,222,682.3 M191.2,672.9c0.5-0.2,1.4-0.3,3.1-0.3c1.3,0,2.2,0.2,2.8,0.7c0.7,0.5,1,1.1,1.3,2.2
	c0.1,0.5,0.2,0.6,0.6,0.6c0.3,0,0.5-0.2,0.5-0.6s0-0.8-0.1-1.4c-0.1-0.7-0.1-1.1-0.1-1.3l-0.1-1.1c0-0.5-0.3-0.7-0.9-0.7
	c-0.1,0-0.6,0-1,0c-2.9,0.1-5.5,0.2-8,0.2h-3.9h-3.3c-0.8,0-1.4,0-1.8,0c-0.2,0-0.5,0-0.6,0c-0.5,0-0.7,0.2-0.7,0.6l-0.1,1l-0.2,1.5
	l-0.1,1.4c-0.1,0.6-0.1,0.9-0.1,1.3s0.1,0.5,0.5,0.5c0.2,0,0.5-0.2,0.6-0.7l0.1-0.5c0.3-1.1,0.6-1.9,0.8-2.2
	c0.2-0.3,0.6-0.6,1.1-0.8c0.8-0.3,2.3-0.5,4.4-0.5c0.9,0,1.4,0.5,1.4,1.3v14.3v0.8c0,0.9-0.2,1.7-0.7,2.3c-0.5,0.6-1.1,0.8-1.9,0.9
	c-0.3,0-0.6,0.1-0.6,0.1c-0.1,0.1-0.1,0.2-0.1,0.5s0.1,0.5,0.5,0.5c0.1,0,0.3,0,0.8-0.1l3.6-0.2c0.5,0,1,0,1.7,0c0.2,0,0.5,0,0.7,0
	l2.1,0.1h1.3c0.2,0,0.3,0,0.5,0c0.3,0,0.5-0.1,0.5-0.3c0-0.3-0.2-0.6-0.6-0.6c-1.4-0.1-2.3-0.5-2.8-1.3c-0.6-0.8-0.8-2.1-0.8-3.9
	v-12.2C190.6,673.8,190.8,673.1,191.2,672.9"/>
<path fill="#5C5D60" d="M384,768.9c0-0.9,0.2-1.5,0.8-1.6l1.1-0.1h1.9c1.7,0,3,0.2,3.8,0.7c0.8,0.5,1.1,1.3,1.1,2.3
	c0,0.5,0.1,0.7,0.3,0.7c0.5,0,0.6-0.5,0.6-1.3c0-0.5,0-1-0.1-2.1c-0.1-0.7-0.1-1-0.1-1.4s-0.1-0.6-0.5-0.6c-0.1,0-0.1,0-0.2,0
	c-0.8,0.1-3,0.1-6.5,0.1l-6.1-0.1l-1.6-0.1c-0.3,0-0.6,0-0.8,0c-0.2,0-0.5,0-0.5,0c-0.3,0-0.6,0.1-0.6,0.3s0.1,0.5,0.5,0.5
	c1.3,0.1,2.1,0.5,2.4,0.9c0.3,0.5,0.6,1.3,0.6,2.4v12.7c0,1-0.1,1.7-0.2,2.3c-0.1,0.7-0.3,1.1-0.6,1.4c-0.2,0.2-0.7,0.5-1.3,0.8
	c-0.2,0.1-0.3,0.2-0.3,0.5s0.1,0.3,0.5,0.3c0.2,0,0.5,0,0.9,0c1.6-0.1,2.8-0.1,3.6-0.1c1.1,0,2.1,0,2.8,0.1l1.8,0.2
	c0.8,0.1,1.6,0.1,2.3,0.1c1.1,0,2.1-0.2,2.9-0.6c0.8-0.3,1.3-0.9,1.7-1.8c0.6-1,0.8-2.1,0.8-3.1c0-0.1,0-0.2-0.1-0.3
	s-0.2-0.1-0.3-0.1c0,0-0.1,0.1-0.2,0.2c-1.4,2.6-4.2,4-8.6,4c-0.6,0-0.9-0.1-1.1-0.2s-0.5-0.5-0.7-1c-0.2-0.7-0.3-1.7-0.3-3.3v-1.5
	c0-1.1,0-1.9,0.1-2.5c0.1-0.5,0.2-0.8,0.3-0.9c0.2-0.1,0.6-0.2,1-0.2h1.1c1.1,0,1.8,0,2.3,0.1s0.7,0.2,1,0.5
	c0.5,0.5,0.8,1.1,0.9,2.1c0.1,0.5,0.2,0.7,0.5,0.6c0.1,0,0.2,0,0.2-0.1c0,0,0-0.1,0-0.3v-0.8c0-0.6,0-1.4-0.1-2.2
	c-0.1-1.3-0.1-2.1-0.1-2.4c0-0.2,0-0.5,0-0.7c0-0.3,0-0.6,0-0.7c0-0.3-0.1-0.5-0.3-0.5c-0.2,0-0.3,0.1-0.5,0.3l-0.3,0.8
	c-0.6,1.1-1.4,1.7-2.5,1.7h-0.8h-0.7h-0.5c-0.6,0-0.9-0.1-1-0.5c-0.1-0.2-0.2-0.9-0.2-1.9V768.9L384,768.9z M361.8,768.9
	c0-1.4,0.6-2.2,1.6-2.3c0.5,0,0.7-0.1,0.7-0.5c0-0.3-0.3-0.5-0.9-0.5c-0.9,0-1.7,0-2.5,0.1c-1.1,0.1-1.9,0.2-2.5,0.2
	c-0.3,0-0.8,0-1.5-0.1h-0.7c-0.2,0-0.5,0-0.6-0.1c-0.2,0-0.3,0-0.5,0c-0.3,0-0.5,0.1-0.5,0.5c0,0.2,0.2,0.5,0.6,0.5l0.9,0.1
	c1.4,0.2,2.2,1.1,2.2,2.9v13.4c0,1.3-0.1,2.2-0.3,2.8c-0.2,0.6-0.7,0.9-1.4,1.1c-0.2,0.1-0.5,0.2-0.5,0.5s0.1,0.5,0.5,0.5
	c0.1,0,0.5,0,0.9-0.1c1.5-0.1,2.8-0.2,4-0.2c0.8,0,1.4,0,2.1,0l1.7,0.1c1.1,0.1,1.7,0.1,1.9,0.1c0.7,0,1.3,0.1,1.5,0.1
	c1.4,0,2.4-0.5,3.2-1.4c0.9-1,1.4-2.3,1.4-3.7c0-0.5-0.1-0.7-0.3-0.7c-0.1,0-0.5,0.3-0.9,1c-1.5,2.2-4.1,3.2-7.8,3.2
	c-0.8,0-1.3-0.1-1.6-0.2c-0.5-0.2-0.7-1.4-0.7-3.3V768.9z M339.7,768.9c0-1.4,0.6-2.2,1.6-2.3c0.5,0,0.7-0.1,0.7-0.5
	c0-0.3-0.3-0.5-0.9-0.5c-0.9,0-1.7,0-2.5,0.1c-1.1,0.1-1.9,0.2-2.5,0.2c-0.3,0-0.8,0-1.5-0.1h-0.7c-0.2,0-0.5,0-0.7-0.1
	c-0.2,0-0.3,0-0.5,0c-0.3,0-0.5,0.1-0.5,0.5c0,0.2,0.2,0.5,0.6,0.5l0.9,0.1c1.4,0.2,2.2,1.1,2.2,2.9v13.4c0,1.3-0.1,2.2-0.3,2.8
	c-0.2,0.6-0.7,0.9-1.4,1.1c-0.2,0.1-0.5,0.2-0.5,0.5s0.1,0.5,0.5,0.5c0.1,0,0.5,0,0.9-0.1c1.5-0.1,2.8-0.2,4-0.2c0.8,0,1.4,0,2.1,0
	l1.7,0.1c1.1,0.1,1.7,0.1,1.9,0.1c0.7,0,1.3,0.1,1.5,0.1c1.4,0,2.4-0.5,3.2-1.4c0.9-1,1.4-2.3,1.4-3.7c0-0.5-0.1-0.7-0.3-0.7
	c-0.1,0-0.5,0.3-0.9,1c-1.5,2.2-4.1,3.2-7.8,3.2c-0.8,0-1.3-0.1-1.6-0.2c-0.5-0.2-0.7-1.4-0.7-3.3v-14H339.7z M323.8,769.1
	c0-0.9,0.1-1.5,0.3-1.8s0.7-0.5,1.5-0.7c0.2,0,0.3-0.1,0.5-0.1c0-0.1,0.1-0.2,0.1-0.3c0-0.2-0.2-0.3-0.6-0.3c-0.6,0-1.5,0-2.5,0.1
	L322,766c-0.9,0.1-1.6,0.1-2.3,0.1c-0.9,0-1.6,0-1.9-0.1c-0.3-0.1-0.7-0.1-0.9-0.1c-0.2,0-0.3,0.1-0.3,0.5c0,0.2,0.1,0.3,0.2,0.5
	c0.1,0.1,0.5,0.1,1,0.2c0.9,0.1,1.5,0.5,1.8,0.8c0.3,0.5,0.5,1.1,0.5,2.1v12.8v1.5c0,0.9-0.1,1.6-0.3,1.9c-0.2,0.5-0.8,0.7-1.5,1
	l-0.5,0.3v0.1c0.1,0.2,0.2,0.3,0.5,0.3c0.2,0,0.6,0,1.1-0.1c0.6-0.1,1.5-0.1,2.5-0.1c0.9,0,1.9,0.1,3.4,0.2c0.6,0,1,0.1,1.3,0.1
	c0.7,0,1-0.1,1-0.5c0-0.3-0.2-0.5-0.8-0.5c-0.8,0-1.5-0.2-1.9-0.7c-0.5-0.5-0.8-1-0.9-1.9l-0.1-1.6V769.1z M296.3,768.1
	c0-0.8,0.3-1.3,1.1-1.4c0.5-0.1,0.7-0.2,0.7-0.5c0-0.3-0.1-0.5-0.5-0.5c-0.2,0-0.7,0-1.4,0.1l-1.7,0.1l-2.8-0.1
	c-0.7,0-1.4,0-1.9-0.1c-0.2,0-0.3,0-0.5,0c-0.3,0-0.5,0.1-0.5,0.5c0,0.2,0.2,0.5,0.7,0.6c0.8,0.1,1.4,0.6,1.8,1.1
	c0.5,0.7,1,1.9,1.7,3.9c0.6,1.7,1.4,3.6,2.3,5.7l3.8,8.7l0.5,1l0.3,0.8c0.1,0.2,0.2,0.3,0.5,0.3c0.3,0,0.6-0.2,0.8-0.7
	c0.1-0.2,0.5-0.9,1-2.1c0.1-0.1,0.6-1.1,1.5-3.2l2.8-6.1l2.4-5.5c0.7-1.6,1.3-2.8,1.7-3.2c0.3-0.6,0.9-0.8,1.5-0.9
	c0.3-0.1,0.5-0.2,0.5-0.5s-0.1-0.5-0.3-0.5c-0.1,0-0.3,0-0.7,0.1c-0.7,0.1-1.6,0.2-2.5,0.2c-0.3,0-0.9,0-1.6-0.1l-1.7-0.1
	c-0.5,0-0.8,0-0.9,0c-0.2,0-0.5,0.1-0.5,0.3s0.2,0.3,0.6,0.5c0.9,0.1,1.5,0.5,2.1,0.8c0.5,0.5,0.7,0.9,0.7,1.6
	c0,1.1-0.6,3.1-1.8,5.7l-3.7,8c-0.1,0.3-0.2,0.5-0.3,0.5c-0.1,0-0.2-0.2-0.5-0.6l-3.6-8.8C296.9,770.9,296.3,769,296.3,768.1
	 M276.1,766.2c0,0.2,0.1,0.5,0.6,0.5l0.7,0.1c0.9,0.1,1.4,0.6,1.4,1.3c0,0.3-0.1,0.7-0.3,1.1c-0.2,0.3-0.8,1-1.6,2.1l-1.7,1.9
	l-0.7,0.9c-0.2,0.2-0.3,0.3-0.5,0.3c-0.2,0-0.5-0.2-0.8-0.7l-1.1-1.7l-1.1-1.5c-0.7-1.1-1.1-2.1-1.1-2.6c0-0.2,0.1-0.6,0.3-0.8
	c0.2-0.2,0.6-0.3,0.9-0.5c0.3,0,0.6-0.2,0.6-0.5c0-0.2-0.1-0.5-0.5-0.5c-0.2,0-0.6,0-1,0.1l-1.5,0.1c-0.6,0.1-1.3,0.1-2.1,0.1
	c-0.8,0-2.2-0.1-3.9-0.2c-0.5,0-0.7,0-0.9,0c-0.3,0-0.5,0.1-0.5,0.5c0,0.2,0.2,0.5,0.6,0.6c1,0.2,1.8,0.6,2.4,1.3
	c0.6,0.6,1.9,2.3,3.9,5.2c0.7,1,1.4,1.8,1.8,2.5c0.8,1,1.3,1.7,1.3,1.9s-0.3,0.8-1.1,1.6c-0.6,0.6-1.4,1.6-2.6,3.1
	c-1.4,1.7-2.5,2.9-3.3,3.6s-1.6,1.1-2.5,1.3c-0.3,0.1-0.5,0.2-0.5,0.5c0,0.1,0.1,0.2,0.1,0.2l0.5,0.1h0.7h1.5c0.6,0,1.1,0,1.5,0
	c1.3,0,2.6,0.1,3.9,0.2c0.3,0,0.5,0,0.6,0c0.2,0,0.3-0.1,0.3-0.5c0-0.2-0.2-0.5-0.6-0.5c-1.7-0.1-2.5-0.7-2.5-1.5
	c0-0.8,1.3-2.6,3.7-5.4c0.3-0.5,0.7-0.8,1-1.1c0.1-0.2,0.3-0.3,0.3-0.3c0.1,0,0.2,0.1,0.3,0.3l0.8,1c1.4,1.7,2.3,3.1,2.9,3.9
	c0.6,0.8,0.8,1.4,0.8,1.8c0,0.7-0.5,1.1-1.3,1.3c-0.3,0-0.6,0.2-0.6,0.5s0.2,0.3,0.6,0.3c0.2,0,0.7,0,1.3,0l1.7-0.1
	c0.5,0,0.9,0,1.4,0c0.7,0,1.6,0,2.5,0.1l2.1,0.1c0.3,0,0.6,0,0.7,0c0.3,0,0.6-0.1,0.6-0.5s-0.2-0.5-0.6-0.6c-1.1-0.1-2.2-0.5-3-1.3
	c-1.3-1.3-2.8-3.1-4.5-5.6c-1.1-1.6-1.8-2.6-2.1-3c-0.6-0.8-0.9-1.3-0.9-1.5s0.2-0.6,0.7-1c0.1-0.1,0.8-0.9,2.1-2.5
	c1.7-2.1,3.3-3.7,4.7-4.7c0.5-0.3,1.1-0.7,2.2-0.8c0.3,0,0.6-0.2,0.6-0.5s-0.1-0.5-0.5-0.5c-0.2,0-0.6,0-1,0l-1.9,0.1
	c-0.5,0-1,0-1.5,0c-0.9,0-1.8,0-2.9-0.1c-0.2,0-0.5,0-0.6,0C276.4,765.8,276.2,765.9,276.1,766.2 M252,768.6c1,0.9,1.8,2.2,2.4,3.8
	c0.6,1.6,0.9,3.2,0.9,4.9c0,3-0.7,5.3-1.9,7c-1.4,1.7-3.1,2.6-5.3,2.6c-2.4,0-4.5-1-6-3.2c-1.5-2.1-2.3-4.8-2.3-8.3
	c0-2.9,0.6-5,1.8-6.7c1.3-1.6,2.9-2.4,5-2.4C248.7,766.6,250.6,767.2,252,768.6 M242.8,766.3c-1.6,0.7-3,1.6-4,2.8
	c-0.9,1-1.6,2.2-2.2,3.7s-0.8,2.9-0.8,4.4c0,3.4,1,6.1,3.1,8.1c2.1,2.1,4.8,3.1,8.4,3.1c3.7,0,6.5-1.1,8.6-3.6
	c2.2-2.4,3.2-5.3,3.2-8.8c0-3.2-1-5.7-3.1-7.7c-2.1-1.9-4.8-3-8.1-3C246.1,765.4,244.4,765.6,242.8,766.3 M216.3,768.5l-1.1-1.3
	c-0.6-0.7-1-1.1-1.3-1.4c-0.2-0.1-0.5-0.2-0.8-0.2c-0.2,0-0.6,0-0.9,0c-0.9,0.1-1.8,0.1-2.8,0.1h-0.7h-1.1c-0.3,0-0.6,0.1-0.6,0.5
	c0,0.2,0.1,0.3,0.5,0.5c2.4,0.1,3.7,1.9,3.7,5.2v7l-0.1,3.8c0,1.4-0.2,2.3-0.6,3c-0.3,0.7-0.9,1.1-1.7,1.4c-0.3,0.1-0.5,0.2-0.5,0.5
	c0,0.2,0.1,0.3,0.5,0.3c0.1,0,0.5,0,0.8-0.1c0.8-0.1,1.8-0.2,2.9-0.2c1.1,0,2.1,0.1,3,0.2c0.3,0,0.5,0.1,0.7,0.1
	c0.3,0,0.5-0.1,0.5-0.5c0-0.2-0.1-0.3-0.5-0.5c-1.7-0.1-2.8-0.8-3.1-2.1c-0.3-1.1-0.5-3.3-0.5-6.7v-6.1v-0.5c0-0.5,0.1-0.7,0.3-0.7
	c0.1,0,0.2,0.1,0.6,0.5l14.7,16.3c0.2,0.2,0.5,0.3,0.6,0.3c0.2,0,0.3-0.1,0.3-0.5l-0.1-2.1v-1.3v-1.8l0.1-1.4l0.2-10.1v-0.8
	c0-2.2,0.7-3.4,2.1-3.7c0.3,0,0.5-0.2,0.5-0.5c0-0.3-0.1-0.5-0.6-0.5c-0.1,0-0.2,0-0.5,0c-1.6,0.2-2.8,0.3-3.6,0.3
	c-0.3,0-0.8,0-1.4-0.1c-0.9-0.1-1.5-0.1-1.8-0.1c-0.3,0-0.5,0.1-0.5,0.5c0,0.2,0.2,0.3,0.6,0.3c1.5,0.1,2.5,0.6,3,1.5
	c0.5,0.9,0.8,2.6,0.8,5.2c0,2.2,0,4.4-0.1,6.8c0,0.7-0.1,1-0.3,1s-0.7-0.5-1.5-1.3l-0.6-0.6l-8.5-9.6
	C217,769.3,216.7,769.1,216.3,768.5 M187.3,770c0-1.3,0.1-2.1,0.3-2.4s0.8-0.7,1.7-0.9c0.2-0.1,0.5-0.2,0.5-0.3
	c0-0.3-0.1-0.5-0.5-0.5c-0.2,0-0.5,0-0.7,0.1c-1,0.1-2.2,0.1-3.4,0.1c-1.5,0-2.8-0.1-3.9-0.2c-0.2,0-0.6,0-0.8,0
	c-0.3,0-0.5,0.1-0.5,0.3c0,0.2,0,0.5,0.1,0.5c0.1,0.1,0.2,0.1,0.5,0.1c0.8,0.1,1.5,0.2,1.9,0.6s0.8,0.7,0.9,1.4l0.1,0.9v0.6v13
	c0,1.4-0.1,2.3-0.5,2.9s-0.8,0.9-1.6,1c-0.2,0-0.5,0.2-0.5,0.3c0,0.3,0.2,0.5,0.6,0.5c0.5,0,0.9,0,1.6-0.1c1-0.1,2.2-0.1,3.4-0.1
	c0.9,0,1.6,0,2.2,0.1c0.5,0.1,0.8,0.1,1,0.1c0.3,0,0.6-0.1,0.6-0.5c0-0.2-0.3-0.5-0.9-0.5c-0.9-0.1-1.5-0.5-1.8-1.1
	c-0.3-0.7-0.6-1.9-0.6-3.7v-0.7c0-0.9,0-1.5,0.1-1.8c0.1-0.3,0.2-0.6,0.6-0.9l0.7-0.7l0.5-0.5c0.2-0.2,0.3-0.3,0.5-0.3
	c0.2,0,0.5,0.2,0.7,0.7c0.3,0.6,1.3,1.8,2.8,3.8s2.6,3.4,3.6,4.6c0.3,0.5,0.6,0.7,0.6,0.8c0.5,0.6,0.9,0.8,1.5,0.8
	c0.1,0,0.6,0,1.3-0.1c0.3,0,0.7-0.1,1-0.1c0.7,0,1.6,0,2.6,0.1c0.2,0,0.3,0,0.5,0c0.3,0,0.5-0.1,0.5-0.3c0-0.2-0.1-0.5-0.3-0.6
	l-0.3-0.1c-1.5-0.5-2.8-1-3.6-1.9c-1.3-1.3-3.2-3.7-5.8-7.3l-1.1-1.6c-0.5-0.7-0.7-1.1-0.7-1.4c0-0.3,0.5-0.9,1.4-1.7
	c0.3-0.2,0.9-0.8,1.7-1.5c1.7-1.7,3.1-2.9,4.1-3.6c0.9-0.7,1.8-1,2.5-1.1c0.5-0.1,0.7-0.2,0.7-0.5c0-0.3-0.2-0.5-0.6-0.5
	c-0.5,0-1.1,0.1-2.3,0.2c-0.5,0-0.9,0.1-1.3,0.1c-0.5,0-1.3-0.1-2.4-0.2c-0.5,0-0.9-0.1-1.4-0.1c-0.3,0-0.6,0.1-0.6,0.5
	c0,0.3,0.1,0.5,0.6,0.5s0.8,0.1,1.1,0.3c0.2,0.2,0.5,0.5,0.5,0.8c0,0.9-1.5,2.8-4.5,5.4l-2.3,1.9l-1.6,1.4c-0.5,0.3-0.7,0.5-0.8,0.5
	c-0.2,0-0.2-0.2-0.2-0.6v-5.8L187.3,770z"/>
<rect x="42.8" y="670.2" fill="#FF8200" width="117.5" height="117.5"/>
<path fill="#FFFFFF" d="M145.4,685v29.6h-11c0-5.5-5.4-9.9-12-9.9c-4.9,0-9.1,2.4-11,5.7v37c0,7.9,6.1,14.2,13.6,14.2l0,0v11H77.9
	v-11l0,0c7.6,0,13.6-6.4,13.6-14.2v-37c-1.9-3.4-6.1-5.7-11-5.7c-6.7,0-12,4.5-12,9.9h-11V685H145.4z"/>
</svg>
