<svg xmlns="http://www.w3.org/2000/svg" width="449.251" height="123.283" viewBox="0 0 421.172 115.578"><path d="M0 0h293.315v94.954H0z" fill="#fff" fill-rule="evenodd"/><path d="M127.857 0h293.315v94.954H127.857z" fill="#e05e15" fill-rule="evenodd"/><g font-weight="400" font-size="141" font-family="Montserrat" letter-spacing="30" word-spacing="0"><path style="line-height:125%;-inkscape-font-specification:'Montserrat, Normal';text-align:start" d="M23.603 62.65q3.754 4.38 10.167 4.38 6.414 0 10.168-4.38 3.755-4.38 3.755-11.888V20.493h9.229v30.66q0 11.81-6.492 18.224-6.492 6.336-16.66 6.336-10.167 0-16.66-6.336-6.491-6.413-6.491-18.224v-30.66h9.23v30.27q0 7.508 3.754 11.888zm78.396-33.71v46.225h-9.23V28.94H76.188v-8.447h42.392v8.447H102z" fill="#e05e15"/><path style="line-height:125%;-inkscape-font-specification:'Montserrat, Normal';text-align:start" d="M158.808 27.689q-3.99 0-6.57 1.642-2.581 1.643-2.581 5.006 0 3.285 2.58 5.084 2.582 1.72 10.95 3.754 8.448 2.034 12.671 5.71 4.302 3.676 4.302 10.872 0 7.117-5.397 11.576-5.396 4.458-14.156 4.458-12.828 0-22.76-8.838l5.787-6.962q8.29 7.196 17.207 7.196 4.458 0 7.04-1.877 2.659-1.955 2.659-5.084 0-3.207-2.503-4.927-2.425-1.8-8.447-3.207-6.023-1.486-9.151-2.66-3.129-1.25-5.553-3.206-4.85-3.676-4.85-11.263t5.475-11.654q5.553-4.145 13.688-4.145 5.24 0 10.402 1.72 5.162 1.721 8.917 4.85l-4.928 6.96q-2.424-2.19-6.57-3.597-4.145-1.408-8.212-1.408zm83.089 5.71q-5.554-5.788-13.688-5.788t-13.766 5.788q-5.553 5.787-5.553 14.078 0 8.213 5.553 14 5.632 5.788 13.766 5.788t13.688-5.787q5.631-5.788 5.631-14 0-8.292-5.631-14.08zm6.804 34.257q-8.29 8.057-20.492 8.057-12.201 0-20.492-8.057-8.29-8.134-8.29-20.179 0-12.123 8.29-20.18 8.29-8.133 20.492-8.133 12.202 0 20.492 8.134 8.291 8.056 8.291 20.18 0 12.044-8.29 20.178zm42.887-4.927l-5.475 12.436h-9.855l24.09-54.672h9.855l24.09 54.672h-9.855l-5.475-12.436h-27.375zm23.62-8.525l-9.932-22.526-9.934 22.526h19.867zm53.682 8.525l-5.476 12.436h-9.855l24.09-54.672h9.855l24.09 54.672h-9.855l-5.475-12.436H368.89zm23.62-8.525l-9.933-22.526-9.934 22.526h19.867z" fill="#fff"/></g><path style="line-height:125%;-inkscape-font-specification:'Avenir LT Std, Normal';text-align:start" d="M17.724 105.944h-.955v5.786c0 2.707-1.765 2.972-2.482 2.972-.716 0-2.481-.265-2.481-2.972v-5.786h-.955v5.892c0 1.566.623 3.742 3.436 3.742 2.813 0 3.437-2.176 3.437-3.742v-5.892zm6.944.876h3.145v-.876h-7.245v.876h3.145v8.519h.955v-8.519zm12.557 6.05h4.804l1.035 2.469h1.114l-4.087-9.395h-.928l-4.087 9.395h1.114l1.035-2.468zm2.402-5.811l2.03 4.936h-4.073l2.043-4.936zm14.083-1.115h-.955v5.786c0 2.707-1.765 2.972-2.481 2.972-.717 0-2.482-.265-2.482-2.972v-5.786h-.955v5.892c0 1.566.624 3.742 3.437 3.742 2.813 0 3.436-2.176 3.436-3.742v-5.892zm9.214.903c-.743-.85-1.593-1.141-2.654-1.141-1.526 0-3.039.849-3.039 2.667 0 3.436 4.817 1.963 4.817 4.617 0 1.102-1.075 1.712-2.017 1.712-.982 0-1.738-.451-2.136-1.141l-.863.623c.717.982 1.818 1.394 2.96 1.394 1.485 0 3.09-1.009 3.09-2.72 0-3.384-4.816-2.044-4.816-4.578 0-1.181 1.022-1.699 2.004-1.699.796 0 1.406.306 1.818.916l.836-.65zm6.666-.027h3.145v-.876h-7.244v.876h3.144v8.519h.956v-8.519zm7.113-.876h-.955v9.395h.955v-9.395zm5.287 0h-1.194v9.395h.956v-8.041h.026l5.6 8.04h1.194v-9.394h-.955v7.962h-.027l-5.6-7.962zm19.736.903c-.743-.85-1.592-1.141-2.654-1.141-1.526 0-3.038.849-3.038 2.667 0 3.436 4.816 1.963 4.816 4.617 0 1.102-1.074 1.712-2.016 1.712-.982 0-1.739-.451-2.137-1.141l-.862.623c.716.982 1.818 1.394 2.959 1.394 1.486 0 3.091-1.009 3.091-2.72 0-3.384-4.816-2.044-4.816-4.578 0-1.181 1.022-1.699 2.003-1.699.797 0 1.407.306 1.818.916l.836-.65zm10.608 6.448c-.703 1.088-1.712 1.407-2.693 1.407-2.415 0-3.862-1.898-3.862-4.06 0-2.163 1.447-4.06 3.862-4.06.995 0 2.043.623 2.414 1.233l.836-.623c-.822-1.049-2.083-1.486-3.25-1.486-2.8 0-4.897 2.083-4.897 4.936 0 2.852 2.097 4.936 4.897 4.936 1.552 0 2.852-.757 3.476-1.725l-.783-.558zm4.882-7.351h-.955v9.395h.955v-9.395zm5.049 4.95h4.551v-.876h-4.551v-3.198h4.87v-.876h-5.825v9.395h5.984v-.876h-5.03v-3.57zm9.667-4.95h-1.194v9.395h.955v-8.041h.027l5.6 8.04h1.194v-9.394h-.956v7.962h-.026l-5.6-7.962zm17.623 7.351c-.703 1.088-1.711 1.407-2.693 1.407-2.415 0-3.861-1.898-3.861-4.06 0-2.163 1.446-4.06 3.86-4.06.996 0 2.044.623 2.416 1.233l.836-.623c-.823-1.049-2.084-1.486-3.251-1.486-2.8 0-4.896 2.083-4.896 4.936 0 2.852 2.096 4.936 4.896 4.936 1.552 0 2.853-.757 3.476-1.725l-.783-.558zm4.883-2.401h4.55v-.876h-4.55v-3.198h4.87v-.876h-5.826v9.395h5.984v-.876h-5.028v-3.57zm22.084-.252c0-2.853-2.097-4.936-4.897-4.936-2.8 0-4.896 2.083-4.896 4.936 0 2.852 2.097 4.936 4.896 4.936 2.8 0 4.897-2.084 4.897-4.936zm-1.035 0c0 2.162-1.447 4.06-3.862 4.06-2.414 0-3.86-1.898-3.86-4.06 0-2.163 1.446-4.06 3.86-4.06 2.415 0 3.862 1.897 3.862 4.06zm5.451-4.698h-.956v9.395h5.334v-.876h-4.378v-8.519zm8.945 5.348l3.516-5.348h-1.194l-2.8 4.432-2.8-4.432h-1.194l3.517 5.348v4.047h.955v-4.047zm7.617-5.348h-1.46v9.395h.955v-8.12h.027l3.397 8.12h.504l3.397-8.12h.026v8.12h.956v-9.395h-1.46l-3.171 7.643-3.171-7.643zm11.908 9.395h.955v-4.366h1.778c1.91 0 3.092-.836 3.092-2.52 0-1.686-1.181-2.509-3.092-2.509h-2.733v9.395zm.955-8.519h1.54c1.711 0 2.295.73 2.295 1.632 0 .903-.584 1.646-2.296 1.646h-1.539v-3.278zm9.169-.876h-.955v9.395h.955v-9.395zm4.969 6.926h4.804l1.035 2.469h1.114l-4.086-9.395h-.93l-4.086 9.395h1.114l1.035-2.468zm2.402-5.811l2.03 4.936h-4.073l2.043-4.936zm7.237 8.28h3.118c2.348 0 4.936-1.566 4.936-4.697 0-3.132-2.588-4.698-4.936-4.698h-3.119v9.395zm.955-8.519h1.857c2.867 0 4.207 1.884 4.207 3.822 0 1.937-1.34 3.821-4.207 3.821h-1.857v-7.643zm16.511 6.05h4.803l1.035 2.469h1.115l-4.087-9.395h-.929l-4.087 9.395h1.115l1.035-2.468zm2.402-5.811l2.03 4.936h-4.074l2.044-4.936zm8.324-1.115h-.955v9.395h5.334v-.876h-4.379v-8.519zm13.943 0h-.955v5.786c0 2.707-1.765 2.972-2.481 2.972-.717 0-2.482-.265-2.482-2.972v-5.786h-.955v5.892c0 1.566.624 3.742 3.437 3.742 2.813 0 3.436-2.176 3.436-3.742v-5.892zm5.392 0h-1.46v9.395h.956v-8.12h.026l3.397 8.12h.505l3.396-8.12h.027v8.12h.955v-9.395h-1.46l-3.17 7.643-3.172-7.643zm13.103 0h-1.195v9.395h.956v-8.041h.026l5.6 8.04h1.194v-9.394h-.956v7.962h-.026l-5.6-7.962zm11.625 0h-.955v9.395h.955v-9.395zm9.412 6.926h4.804l1.035 2.469h1.114l-4.086-9.395h-.93l-4.086 9.395h1.114l1.035-2.468zm2.402-5.811l2.03 4.936h-4.073l2.043-4.936zm12.651-.212c-.744-.85-1.593-1.141-2.655-1.141-1.525 0-3.038.849-3.038 2.667 0 3.436 4.816 1.963 4.816 4.617 0 1.102-1.074 1.712-2.016 1.712-.982 0-1.739-.451-2.137-1.141l-.862.623c.716.982 1.818 1.394 2.959 1.394 1.486 0 3.091-1.009 3.091-2.72 0-3.384-4.816-2.044-4.816-4.578 0-1.181 1.022-1.699 2.003-1.699.797 0 1.407.306 1.818.916l.836-.65zm8.935 0c-.743-.85-1.592-1.141-2.654-1.141-1.525 0-3.038.849-3.038 2.667 0 3.436 4.816 1.963 4.816 4.617 0 1.102-1.074 1.712-2.016 1.712-.982 0-1.739-.451-2.137-1.141l-.862.623c.716.982 1.818 1.394 2.959 1.394 1.486 0 3.091-1.009 3.091-2.72 0-3.384-4.816-2.044-4.816-4.578 0-1.181 1.022-1.699 2.003-1.699.797 0 1.407.306 1.818.916l.836-.65zm12.811 3.795c0-2.853-2.097-4.936-4.896-4.936-2.8 0-4.897 2.083-4.897 4.936 0 2.852 2.097 4.936 4.897 4.936 2.8 0 4.896-2.084 4.896-4.936zm-1.035 0c0 2.162-1.447 4.06-3.861 4.06-2.415 0-3.862-1.898-3.862-4.06 0-2.163 1.447-4.06 3.862-4.06 2.414 0 3.86 1.897 3.86 4.06zm11.449 2.653c-.704 1.088-1.712 1.407-2.694 1.407-2.415 0-3.862-1.898-3.862-4.06 0-2.163 1.447-4.06 3.862-4.06.995 0 2.043.623 2.415 1.233l.835-.623c-.822-1.049-2.083-1.486-3.25-1.486-2.8 0-4.897 2.083-4.897 4.936 0 2.852 2.097 4.936 4.897 4.936 1.552 0 2.852-.757 3.476-1.725l-.783-.558zm4.881-7.351h-.955v9.395h.955v-9.395zm4.969 6.926h4.804l1.035 2.469h1.114l-4.087-9.395h-.928l-4.087 9.395h1.114l1.035-2.468zm2.402-5.811l2.03 4.936h-4.073l2.043-4.936zm9.474-.239h3.145v-.876h-7.245v.876h3.145v8.519h.955v-8.519zm7.113-.876h-.956v9.395h.956v-9.395zm13.248 4.698c0-2.853-2.096-4.936-4.896-4.936s-4.896 2.083-4.896 4.936c0 2.852 2.097 4.936 4.896 4.936 2.8 0 4.896-2.084 4.896-4.936zm-1.034 0c0 2.162-1.447 4.06-3.862 4.06s-3.861-1.898-3.861-4.06c0-2.163 1.446-4.06 3.861-4.06s3.862 1.897 3.862 4.06zm5.689-4.698h-1.194v9.395h.955v-8.041h.027l5.6 8.04h1.194v-9.394h-.956v7.962h-.026l-5.6-7.962z" font-weight="400" font-family="Avenir LT Std" letter-spacing="1.55" word-spacing="0"/></svg>